<svg width="122" height="40" viewBox="0 0 122 40" fill="none" xmlns="http://www.w3.org/2000/svg">
<path d="M20.3333 13.3333V15.3333" stroke="#787486" stroke-width="1.3" stroke-miterlimit="10" stroke-linecap="round" stroke-linejoin="round"/>
<path d="M25.6667 13.3333V15.3333" stroke="#787486" stroke-width="1.3" stroke-miterlimit="10" stroke-linecap="round" stroke-linejoin="round"/>
<path d="M25.6667 14.3333C27.8867 14.4533 29 15.3 29 18.4333V22.5533C29 25.3 28.3333 26.6733 25 26.6733H21C17.6667 26.6733 17 25.3 17 22.5533V18.4333C17 15.3 18.1133 14.46 20.3333 14.3333H25.6667Z" stroke="#787486" stroke-width="1.3" stroke-miterlimit="10" stroke-linecap="round" stroke-linejoin="round"/>
<path d="M28.8333 23.7333H17.1667" stroke="#787486" stroke-width="1.3" stroke-miterlimit="10" stroke-linecap="round" stroke-linejoin="round"/>
<path d="M23 17.5C22.18 17.5 21.4867 17.9467 21.4867 18.8133C21.4867 19.2267 21.68 19.54 21.9733 19.74C21.5667 19.98 21.3333 20.3667 21.3333 20.82C21.3333 21.6467 21.9667 22.16 23 22.16C24.0267 22.16 24.6667 21.6467 24.6667 20.82C24.6667 20.3667 24.4333 19.9733 24.02 19.74C24.32 19.5333 24.5067 19.2267 24.5067 18.8133C24.5067 17.9467 23.82 17.5 23 17.5ZM23 19.3933C22.6533 19.3933 22.4 19.1867 22.4 18.86C22.4 18.5267 22.6533 18.3333 23 18.3333C23.3467 18.3333 23.6 18.5267 23.6 18.86C23.6 19.1867 23.3467 19.3933 23 19.3933ZM23 21.3333C22.56 21.3333 22.24 21.1133 22.24 20.7133C22.24 20.3133 22.56 20.1 23 20.1C23.44 20.1 23.76 20.32 23.76 20.7133C23.76 21.1133 23.44 21.3333 23 21.3333Z" fill="#787486"/>
<rect x="0.5" y="0.5" width="121" height="39" rx="5.5" stroke="#787486"/>
<path d="M102 24.2C101.533 24.2 101.067 24.02 100.713 23.6667L96.3667 19.32C96.1733 19.1267 96.1733 18.8067 96.3667 18.6133C96.56 18.42 96.88 18.42 97.0733 18.6133L101.42 22.96C101.74 23.28 102.26 23.28 102.58 22.96L106.927 18.6133C107.12 18.42 107.44 18.42 107.633 18.6133C107.827 18.8067 107.827 19.1267 107.633 19.32L103.287 23.6667C102.933 24.02 102.467 24.2 102 24.2Z" fill="#787486"/>
<path d="M37.7045 15.875V14.3636H46.7102V15.875H43.0795V26H41.3295V15.875H37.7045ZM50.9744 26.1761C50.1563 26.1761 49.4422 25.9886 48.8324 25.6136C48.2225 25.2386 47.7491 24.714 47.4119 24.0398C47.0748 23.3655 46.9062 22.5777 46.9062 21.6761C46.9062 20.7708 47.0748 19.9792 47.4119 19.3011C47.7491 18.6231 48.2225 18.0966 48.8324 17.7216C49.4422 17.3466 50.1563 17.1591 50.9744 17.1591C51.7926 17.1591 52.5066 17.3466 53.1165 17.7216C53.7263 18.0966 54.1998 18.6231 54.5369 19.3011C54.8741 19.9792 55.0426 20.7708 55.0426 21.6761C55.0426 22.5777 54.8741 23.3655 54.5369 24.0398C54.1998 24.714 53.7263 25.2386 53.1165 25.6136C52.5066 25.9886 51.7926 26.1761 50.9744 26.1761ZM50.9801 24.75C51.5104 24.75 51.9498 24.6098 52.2983 24.3295C52.6468 24.0492 52.9044 23.6761 53.071 23.2102C53.2415 22.7443 53.3267 22.2311 53.3267 21.6705C53.3267 21.1136 53.2415 20.6023 53.071 20.1364C52.9044 19.6667 52.6468 19.2898 52.2983 19.0057C51.9498 18.7216 51.5104 18.5795 50.9801 18.5795C50.446 18.5795 50.0028 18.7216 49.6506 19.0057C49.3021 19.2898 49.0426 19.6667 48.8722 20.1364C48.7055 20.6023 48.6222 21.1136 48.6222 21.6705C48.6222 22.2311 48.7055 22.7443 48.8722 23.2102C49.0426 23.6761 49.3021 24.0492 49.6506 24.3295C50.0028 24.6098 50.446 24.75 50.9801 24.75ZM60.206 26.1705C59.5014 26.1705 58.8726 25.9905 58.3196 25.6307C57.7704 25.267 57.3385 24.75 57.0241 24.0795C56.7135 23.4053 56.5582 22.5966 56.5582 21.6534C56.5582 20.7102 56.7154 19.9034 57.0298 19.233C57.348 18.5625 57.7836 18.0492 58.3366 17.6932C58.8897 17.3371 59.5166 17.1591 60.2173 17.1591C60.759 17.1591 61.1946 17.25 61.5241 17.4318C61.8575 17.6098 62.1151 17.8182 62.2969 18.0568C62.4825 18.2955 62.6264 18.5057 62.7287 18.6875H62.831V14.3636H64.5298V26H62.8707V24.642H62.7287C62.6264 24.8277 62.4787 25.0398 62.2855 25.2784C62.0961 25.517 61.8348 25.7254 61.5014 25.9034C61.1681 26.0814 60.7363 26.1705 60.206 26.1705ZM60.581 24.7216C61.0696 24.7216 61.4825 24.5928 61.8196 24.3352C62.1605 24.0739 62.4181 23.7121 62.5923 23.25C62.7704 22.7879 62.8594 22.25 62.8594 21.6364C62.8594 21.0303 62.7723 20.5 62.598 20.0455C62.4238 19.5909 62.1681 19.2367 61.831 18.983C61.4938 18.7292 61.0772 18.6023 60.581 18.6023C60.0696 18.6023 59.6435 18.7348 59.3026 19C58.9616 19.2652 58.7041 19.6269 58.5298 20.0852C58.3594 20.5436 58.2741 21.0606 58.2741 21.6364C58.2741 22.2197 58.3613 22.7443 58.5355 23.2102C58.7098 23.6761 58.9673 24.0455 59.3082 24.3182C59.6529 24.5871 60.0772 24.7216 60.581 24.7216ZM69.4943 26.1932C68.9413 26.1932 68.4413 26.0909 67.9943 25.8864C67.5473 25.678 67.1932 25.3769 66.9318 24.983C66.6742 24.589 66.5455 24.1061 66.5455 23.5341C66.5455 23.0417 66.6402 22.6364 66.8295 22.3182C67.0189 22 67.2746 21.7481 67.5966 21.5625C67.9186 21.3769 68.2784 21.2367 68.6761 21.142C69.0739 21.0473 69.4792 20.9754 69.892 20.9261C70.4148 20.8655 70.839 20.8163 71.1648 20.7784C71.4905 20.7367 71.7273 20.6705 71.875 20.5795C72.0227 20.4886 72.0966 20.3409 72.0966 20.1364V20.0966C72.0966 19.6004 71.9564 19.2159 71.6761 18.9432C71.3996 18.6705 70.9867 18.5341 70.4375 18.5341C69.8655 18.5341 69.4148 18.661 69.0852 18.9148C68.7595 19.1648 68.5341 19.4432 68.4091 19.75L66.8125 19.3864C67.0019 18.8561 67.2784 18.428 67.642 18.1023C68.0095 17.7727 68.4318 17.5341 68.9091 17.3864C69.3864 17.2348 69.8883 17.1591 70.4148 17.1591C70.7633 17.1591 71.1326 17.2008 71.5227 17.2841C71.9167 17.3636 72.2841 17.5114 72.625 17.7273C72.9697 17.9432 73.2519 18.2519 73.4716 18.6534C73.6913 19.0511 73.8011 19.5682 73.8011 20.2045V26H72.142V24.8068H72.0739C71.964 25.0265 71.7992 25.2424 71.5795 25.4545C71.3598 25.6667 71.0777 25.8428 70.733 25.983C70.3883 26.1231 69.9754 26.1932 69.4943 26.1932ZM69.8636 24.8295C70.3333 24.8295 70.7348 24.7367 71.0682 24.5511C71.4053 24.3655 71.661 24.1231 71.8352 23.8239C72.0133 23.5208 72.1023 23.197 72.1023 22.8523V21.7273C72.0417 21.7879 71.9242 21.8447 71.75 21.8977C71.5795 21.947 71.3845 21.9905 71.1648 22.0284C70.9451 22.0625 70.7311 22.0947 70.5227 22.125C70.3144 22.1515 70.1402 22.1742 70 22.1932C69.6705 22.2348 69.3693 22.3049 69.0966 22.4034C68.8277 22.5019 68.6117 22.6439 68.4489 22.8295C68.2898 23.0114 68.2102 23.2538 68.2102 23.5568C68.2102 23.9773 68.3655 24.2955 68.6761 24.5114C68.9867 24.7235 69.3826 24.8295 69.8636 24.8295ZM76.8253 29.2727C76.5715 29.2727 76.3404 29.2519 76.1321 29.2102C75.9238 29.1723 75.7685 29.1307 75.6662 29.0852L76.0753 27.6932C76.3859 27.7765 76.6624 27.8125 76.9048 27.8011C77.1473 27.7898 77.3613 27.6989 77.5469 27.5284C77.7363 27.358 77.9029 27.0795 78.0469 26.6932L78.2571 26.1136L75.0639 17.2727H76.8821L79.0923 24.0455H79.1832L81.3935 17.2727H83.2173L79.6207 27.1648C79.4541 27.6193 79.242 28.0038 78.9844 28.3182C78.7268 28.6364 78.42 28.875 78.0639 29.0341C77.7079 29.1932 77.295 29.2727 76.8253 29.2727Z" fill="#787486"/>
</svg>
