<svg width="122" height="40" viewBox="0 0 122 40" fill="none" xmlns="http://www.w3.org/2000/svg">
<path d="M18.6 13H27.4C28.1333 13 28.7333 13.6 28.7333 14.3333V15.8C28.7333 16.3333 28.4 17 28.0667 17.3333L25.2 19.8667C24.8 20.2 24.5333 20.8667 24.5333 21.4V24.2667C24.5333 24.6667 24.2667 25.2 23.9333 25.4L23 26C22.1333 26.5333 20.9333 25.9333 20.9333 24.8667V21.3333C20.9333 20.8667 20.6667 20.2667 20.4 19.9333L17.8667 17.2667C17.5333 16.9333 17.2667 16.3333 17.2667 15.9333V14.4C17.2667 13.6 17.8667 13 18.6 13Z" stroke="#787486" stroke-width="1.3" stroke-miterlimit="10" stroke-linecap="round" stroke-linejoin="round"/>
<path d="M94 23.2C93.5333 23.2 93.0667 23.02 92.7133 22.6667L88.3667 18.32C88.1733 18.1267 88.1733 17.8067 88.3667 17.6133C88.56 17.42 88.88 17.42 89.0733 17.6133L93.42 21.96C93.74 22.28 94.26 22.28 94.58 21.96L98.9267 17.6133C99.12 17.42 99.44 17.42 99.6333 17.6133C99.8267 17.8067 99.8267 18.1267 99.6333 18.32L95.2867 22.6667C94.9333 23.02 94.4667 23.2 94 23.2Z" fill="#787486"/>
<rect x="0.5" y="0.5" width="121" height="39" rx="5.5" stroke="#787486"/>
<path d="M38.2784 26V14.3636H45.4943V15.875H40.0341V19.4205H44.9773V20.9261H40.0341V26H38.2784ZM47.517 26V17.2727H49.2159V26H47.517ZM48.375 15.9261C48.0795 15.9261 47.8258 15.8277 47.6136 15.6307C47.4053 15.4299 47.3011 15.1913 47.3011 14.9148C47.3011 14.6345 47.4053 14.3958 47.6136 14.1989C47.8258 13.9981 48.0795 13.8977 48.375 13.8977C48.6705 13.8977 48.9223 13.9981 49.1307 14.1989C49.3428 14.3958 49.4489 14.6345 49.4489 14.9148C49.4489 15.1913 49.3428 15.4299 49.1307 15.6307C48.9223 15.8277 48.6705 15.9261 48.375 15.9261ZM53.2003 14.3636V26H51.5014V14.3636H53.2003ZM59.5597 17.2727V18.6364H54.7926V17.2727H59.5597ZM56.071 15.1818H57.7699V23.4375C57.7699 23.767 57.8191 24.0152 57.9176 24.1818C58.0161 24.3447 58.143 24.4564 58.2983 24.517C58.4574 24.5739 58.6297 24.6023 58.8153 24.6023C58.9517 24.6023 59.071 24.5928 59.1733 24.5739C59.2756 24.5549 59.3551 24.5398 59.4119 24.5284L59.7188 25.9318C59.6203 25.9697 59.4801 26.0076 59.2983 26.0455C59.1165 26.0871 58.8892 26.1098 58.6165 26.1136C58.1695 26.1212 57.7528 26.0417 57.3665 25.875C56.9801 25.7083 56.6676 25.4508 56.429 25.1023C56.1903 24.7538 56.071 24.3163 56.071 23.7898V15.1818ZM65.1065 26.1761C64.2467 26.1761 63.5062 25.9924 62.8849 25.625C62.2675 25.2538 61.7902 24.733 61.4531 24.0625C61.1198 23.3883 60.9531 22.5985 60.9531 21.6932C60.9531 20.7992 61.1198 20.0114 61.4531 19.3295C61.7902 18.6477 62.2599 18.1155 62.8622 17.733C63.4683 17.3504 64.1766 17.1591 64.9872 17.1591C65.4796 17.1591 65.9569 17.2405 66.419 17.4034C66.8812 17.5663 67.2959 17.822 67.6634 18.1705C68.0308 18.5189 68.3205 18.9716 68.5327 19.5284C68.7448 20.0814 68.8509 20.7538 68.8509 21.5455V22.1477H61.9134V20.875H67.1861C67.1861 20.428 67.0952 20.0322 66.9134 19.6875C66.7315 19.339 66.4759 19.0644 66.1463 18.8636C65.8205 18.6629 65.438 18.5625 64.9986 18.5625C64.5213 18.5625 64.1046 18.6799 63.7486 18.9148C63.3963 19.1458 63.1236 19.4489 62.9304 19.8239C62.741 20.1951 62.6463 20.5985 62.6463 21.0341V22.0284C62.6463 22.6117 62.7486 23.108 62.9531 23.517C63.1615 23.9261 63.4512 24.2386 63.8224 24.4545C64.1937 24.6667 64.6274 24.7727 65.1236 24.7727C65.4455 24.7727 65.7391 24.7273 66.0043 24.6364C66.2694 24.5417 66.4986 24.4015 66.6918 24.2159C66.8849 24.0303 67.0327 23.8011 67.1349 23.5284L68.7429 23.8182C68.6141 24.2917 68.383 24.7064 68.0497 25.0625C67.7202 25.4148 67.3054 25.6894 66.8054 25.8864C66.3092 26.0795 65.7429 26.1761 65.1065 26.1761ZM70.7358 26V17.2727H72.3778V18.6591H72.4688C72.6278 18.1894 72.9081 17.8201 73.3097 17.5511C73.715 17.2784 74.1733 17.142 74.6847 17.142C74.7907 17.142 74.9157 17.1458 75.0597 17.1534C75.2074 17.161 75.3229 17.1705 75.4062 17.1818V18.8068C75.3381 18.7879 75.2169 18.767 75.0426 18.7443C74.8684 18.7178 74.6941 18.7045 74.5199 18.7045C74.1184 18.7045 73.7604 18.7898 73.446 18.9602C73.1354 19.1269 72.8892 19.3598 72.7074 19.6591C72.5256 19.9545 72.4347 20.2917 72.4347 20.6705V26H70.7358Z" fill="#787486"/>
</svg>
