<svg width="67" height="19" viewBox="0 0 67 19" fill="none" xmlns="http://www.w3.org/2000/svg">
<path d="M28.0341 3.36364V15H26.2784V3.36364H28.0341ZM32.1534 9.81818V15H30.4545V6.27273H32.0852V7.69318H32.1932C32.3939 7.23106 32.7083 6.85985 33.1364 6.57955C33.5682 6.29924 34.1117 6.15909 34.767 6.15909C35.3617 6.15909 35.8826 6.28409 36.3295 6.53409C36.7765 6.7803 37.1231 7.14773 37.3693 7.63636C37.6155 8.125 37.7386 8.72917 37.7386 9.44886V15H36.0398V9.65341C36.0398 9.02083 35.875 8.52652 35.5455 8.17045C35.2159 7.81061 34.7633 7.63068 34.1875 7.63068C33.7936 7.63068 33.4432 7.71591 33.1364 7.88636C32.8333 8.05682 32.5928 8.30682 32.4148 8.63636C32.2405 8.96212 32.1534 9.35606 32.1534 9.81818ZM47.1705 6.27273L44.0057 15H42.1875L39.017 6.27273H40.8409L43.0511 12.9886H43.142L45.3466 6.27273H47.1705ZM48.767 15V6.27273H50.4659V15H48.767ZM49.625 4.92614C49.3295 4.92614 49.0758 4.82765 48.8636 4.63068C48.6553 4.42992 48.5511 4.19129 48.5511 3.91477C48.5511 3.63447 48.6553 3.39583 48.8636 3.19886C49.0758 2.99811 49.3295 2.89773 49.625 2.89773C49.9205 2.89773 50.1723 2.99811 50.3807 3.19886C50.5928 3.39583 50.6989 3.63447 50.6989 3.91477C50.6989 4.19129 50.5928 4.42992 50.3807 4.63068C50.1723 4.82765 49.9205 4.92614 49.625 4.92614ZM56.8253 6.27273V7.63636H52.0582V6.27273H56.8253ZM53.3366 4.18182H55.0355V12.4375C55.0355 12.767 55.0848 13.0152 55.1832 13.1818C55.2817 13.3447 55.4086 13.4564 55.5639 13.517C55.723 13.5739 55.8954 13.6023 56.081 13.6023C56.2173 13.6023 56.3366 13.5928 56.4389 13.5739C56.5412 13.5549 56.6207 13.5398 56.6776 13.5284L56.9844 14.9318C56.8859 14.9697 56.7457 15.0076 56.5639 15.0455C56.3821 15.0871 56.1548 15.1098 55.8821 15.1136C55.4351 15.1212 55.0185 15.0417 54.6321 14.875C54.2457 14.7083 53.9332 14.4508 53.6946 14.1023C53.456 13.7538 53.3366 13.3163 53.3366 12.7898V4.18182ZM62.3722 15.1761C61.5123 15.1761 60.7718 14.9924 60.1506 14.625C59.5331 14.2538 59.0559 13.733 58.7188 13.0625C58.3854 12.3883 58.2188 11.5985 58.2188 10.6932C58.2188 9.79924 58.3854 9.01136 58.7188 8.32955C59.0559 7.64773 59.5256 7.11553 60.1278 6.73295C60.7339 6.35038 61.4422 6.15909 62.2528 6.15909C62.7453 6.15909 63.2225 6.24053 63.6847 6.40341C64.1468 6.56629 64.5616 6.82197 64.929 7.17045C65.2964 7.51894 65.5862 7.97159 65.7983 8.52841C66.0104 9.08144 66.1165 9.75379 66.1165 10.5455V11.1477H59.179V9.875H64.4517C64.4517 9.42803 64.3608 9.0322 64.179 8.6875C63.9972 8.33902 63.7415 8.06439 63.4119 7.86364C63.0862 7.66288 62.7036 7.5625 62.2642 7.5625C61.7869 7.5625 61.3703 7.67992 61.0142 7.91477C60.6619 8.14583 60.3892 8.44886 60.196 8.82386C60.0066 9.19508 59.9119 9.59848 59.9119 10.0341V11.0284C59.9119 11.6117 60.0142 12.108 60.2188 12.517C60.4271 12.9261 60.7169 13.2386 61.0881 13.4545C61.4593 13.6667 61.893 13.7727 62.3892 13.7727C62.7112 13.7727 63.0047 13.7273 63.2699 13.6364C63.535 13.5417 63.7642 13.4015 63.9574 13.2159C64.1506 13.0303 64.2983 12.8011 64.4006 12.5284L66.0085 12.8182C65.8797 13.2917 65.6487 13.7064 65.3153 14.0625C64.9858 14.4148 64.571 14.6894 64.071 14.8864C63.5748 15.0795 63.0085 15.1761 62.3722 15.1761Z" fill="#5030E5"/>
<path d="M6 10H12" stroke="#5030E5" stroke-linecap="round" stroke-linejoin="round"/>
<path d="M9 13V7" stroke="#5030E5" stroke-linecap="round" stroke-linejoin="round"/>
<path d="M6.75 17.5H11.25C15 17.5 16.5 16 16.5 12.25V7.75C16.5 4 15 2.5 11.25 2.5H6.75C3 2.5 1.5 4 1.5 7.75V12.25C1.5 16 3 17.5 6.75 17.5Z" fill="#5030E5" fill-opacity="0.2"/>
</svg>
