<svg width="144" height="144" viewBox="0 0 144 144" fill="none" xmlns="http://www.w3.org/2000/svg">
<path opacity="0.6" d="M84 96C84 106.62 79.38 116.22 72 122.76C65.64 128.52 57.24 132 48 132C28.14 132 12 115.86 12 96C12 79.44 23.28 65.4 38.52 61.26C42.66 71.7 51.54 79.74 62.52 82.74C65.52 83.58 68.7 84 72 84C75.3 84 78.48 83.58 81.48 82.74C83.1 86.82 84 91.32 84 96Z" fill="#5030E5"/>
<path d="M108 48C108 52.68 107.1 57.18 105.48 61.26C101.34 71.7 92.46 79.74 81.48 82.74C78.48 83.58 75.3 84 72 84C68.7 84 65.52 83.58 62.52 82.74C51.54 79.74 42.66 71.7 38.52 61.26C36.9 57.18 36 52.68 36 48C36 28.14 52.14 12 72 12C91.86 12 108 28.14 108 48Z" fill="#5030E5"/>
<path opacity="0.4" d="M132 96C132 115.86 115.86 132 96 132C86.76 132 78.36 128.52 72 122.76C79.38 116.22 84 106.62 84 96C84 91.32 83.1 86.82 81.48 82.74C92.46 79.74 101.34 71.7 105.48 61.26C120.72 65.4 132 79.44 132 96Z" fill="#5030E5"/>
</svg>
