<svg width="26" height="20" viewBox="0 0 26 20" fill="none" xmlns="http://www.w3.org/2000/svg">
<path d="M7.5 2.77498C7.65833 2.77498 7.81666 2.83332 7.94166 2.95832L13.375 8.39165C14.2583 9.27498 14.2583 10.725 13.375 11.6083L7.94166 17.0417C7.7 17.2833 7.3 17.2833 7.05833 17.0417C6.81667 16.8 6.81667 16.4 7.05833 16.1583L12.4917 10.725C12.8917 10.325 12.8917 9.67498 12.4917 9.27498L7.05833 3.84165C6.81667 3.59998 6.81667 3.19998 7.05833 2.95832C7.18333 2.84165 7.34167 2.77498 7.5 2.77498Z" fill="#787486"/>
<path d="M13.5 2.77498C13.6583 2.77498 13.8167 2.83332 13.9417 2.95832L19.375 8.39165C20.2583 9.27498 20.2583 10.725 19.375 11.6083L13.9417 17.0417C13.7 17.2833 13.3 17.2833 13.0583 17.0417C12.8167 16.8 12.8167 16.4 13.0583 16.1583L18.4917 10.725C18.8917 10.325 18.8917 9.67498 18.4917 9.27498L13.0583 3.84165C12.8167 3.59998 12.8167 3.19998 13.0583 2.95832C13.1833 2.84165 13.3417 2.77498 13.5 2.77498Z" fill="#787486"/>
</svg>
