<svg width="206" height="251" viewBox="0 0 206 251" fill="none" xmlns="http://www.w3.org/2000/svg">
<path fill-rule="evenodd" clip-rule="evenodd" d="M136 51C136 32.7746 121.225 18 103 18C84.7746 18 70 32.7746 70 51H16C7.16344 51 0 58.1634 0 67V235C0 243.837 7.16345 251 16 251H190C198.837 251 206 243.837 206 235V67C206 58.1634 198.837 51 190 51H136Z" fill="#F5F5F5"/>
<g filter="url(#filter0_f_0_1)">
<circle cx="102.5" cy="50.5" r="16.5" fill="#FCD64A" fill-opacity="0.7"/>
</g>
<path d="M110.21 45.36C109.17 43.26 107.16 41.71 104.83 41.2C102.39 40.66 99.89 41.24 97.98 42.78C96.06 44.31 94.97 46.6 94.97 49.05C94.97 51.64 96.52 54.35 98.86 55.92V56.75C98.85 57.03 98.84 57.46 99.18 57.81C99.53 58.17 100.05 58.21 100.46 58.21H105.59C106.13 58.21 106.54 58.06 106.82 57.78C107.2 57.39 107.19 56.89 107.18 56.62V55.92C110.28 53.83 112.23 49.42 110.21 45.36Z" fill="#FBCB18"/>
<path d="M106.26 61C106.2 61 106.13 60.99 106.07 60.97C104.06 60.4 101.95 60.4 99.94 60.97C99.57 61.07 99.18 60.86 99.08 60.49C98.97 60.12 99.19 59.73 99.56 59.63C101.82 58.99 104.2 58.99 106.46 59.63C106.83 59.74 107.05 60.12 106.94 60.49C106.84 60.8 106.56 61 106.26 61Z" fill="#FBCB18"/>
<path d="M53.6165 93.1406V91.8182H61.4964V93.1406H58.3196V102H56.7884V93.1406H53.6165ZM64.6049 97.4659V102H63.1184V91.8182H64.585V95.6065H64.6795C64.8585 95.1955 65.1319 94.8691 65.4998 94.6271C65.8677 94.3852 66.3483 94.2642 66.9416 94.2642C67.4653 94.2642 67.9226 94.3719 68.3137 94.5874C68.7082 94.8028 69.0131 95.1243 69.2285 95.5518C69.4473 95.9761 69.5566 96.5064 69.5566 97.1428V102H68.0701V97.3217C68.0701 96.7616 67.926 96.3274 67.6376 96.0192C67.3493 95.7076 66.9482 95.5518 66.4345 95.5518C66.0832 95.5518 65.7683 95.6264 65.4899 95.7756C65.2148 95.9247 64.9977 96.1435 64.8386 96.4318C64.6828 96.7169 64.6049 97.0616 64.6049 97.4659ZM74.7569 102.154C74.041 102.154 73.4163 101.99 72.8826 101.662C72.349 101.334 71.9347 100.875 71.6397 100.285C71.3448 99.6948 71.1973 99.0054 71.1973 98.2166C71.1973 97.4245 71.3448 96.7318 71.6397 96.1385C71.9347 95.5452 72.349 95.0845 72.8826 94.7564C73.4163 94.4283 74.041 94.2642 74.7569 94.2642C75.4728 94.2642 76.0976 94.4283 76.6312 94.7564C77.1648 95.0845 77.5791 95.5452 77.8741 96.1385C78.1691 96.7318 78.3166 97.4245 78.3166 98.2166C78.3166 99.0054 78.1691 99.6948 77.8741 100.285C77.5791 100.875 77.1648 101.334 76.6312 101.662C76.0976 101.99 75.4728 102.154 74.7569 102.154ZM74.7619 100.906C75.2259 100.906 75.6104 100.784 75.9153 100.538C76.2202 100.293 76.4456 99.9666 76.5914 99.5589C76.7406 99.1513 76.8152 98.7022 76.8152 98.2116C76.8152 97.7244 76.7406 97.277 76.5914 96.8693C76.4456 96.4583 76.2202 96.1286 75.9153 95.88C75.6104 95.6314 75.2259 95.5071 74.7619 95.5071C74.2946 95.5071 73.9068 95.6314 73.5985 95.88C73.2936 96.1286 73.0666 96.4583 72.9174 96.8693C72.7716 97.277 72.6987 97.7244 72.6987 98.2116C72.6987 98.7022 72.7716 99.1513 72.9174 99.5589C73.0666 99.9666 73.2936 100.293 73.5985 100.538C73.9068 100.784 74.2946 100.906 74.7619 100.906ZM84.8132 98.8331V94.3636H86.3047V102H84.843V100.678H84.7635C84.5878 101.085 84.3061 101.425 83.9183 101.697C83.5339 101.965 83.0549 102.099 82.4815 102.099C81.991 102.099 81.5568 101.992 81.179 101.776C80.8045 101.558 80.5095 101.234 80.294 100.807C80.0819 100.379 79.9759 99.8506 79.9759 99.2209V94.3636H81.4624V99.0419C81.4624 99.5623 81.6065 99.9766 81.8949 100.285C82.1832 100.593 82.5578 100.747 83.0185 100.747C83.2969 100.747 83.5736 100.678 83.8487 100.538C84.1271 100.399 84.3575 100.189 84.5398 99.907C84.7254 99.6252 84.8165 99.2673 84.8132 98.8331ZM91.5037 105.023C90.8972 105.023 90.3752 104.943 89.9377 104.784C89.5035 104.625 89.1489 104.415 88.8738 104.153C88.5987 103.891 88.3932 103.604 88.2573 103.293L89.535 102.766C89.6245 102.911 89.7438 103.066 89.8929 103.228C90.0454 103.394 90.2509 103.535 90.5094 103.651C90.7712 103.767 91.1077 103.825 91.5186 103.825C92.0821 103.825 92.5478 103.687 92.9157 103.412C93.2836 103.14 93.4675 102.706 93.4675 102.109V100.608H93.373C93.2836 100.77 93.1543 100.951 92.9853 101.15C92.8195 101.349 92.5909 101.521 92.2992 101.667C92.0075 101.813 91.628 101.886 91.1607 101.886C90.5575 101.886 90.0139 101.745 89.53 101.463C89.0494 101.178 88.6683 100.759 88.3865 100.205C88.1081 99.6484 87.9689 98.964 87.9689 98.152C87.9689 97.34 88.1065 96.6439 88.3816 96.0639C88.66 95.4839 89.0411 95.0398 89.525 94.7315C90.0089 94.42 90.5575 94.2642 91.1706 94.2642C91.6446 94.2642 92.0274 94.3438 92.3191 94.5028C92.6107 94.6586 92.8378 94.8409 93.0002 95.0497C93.1659 95.2585 93.2935 95.4425 93.383 95.6016H93.4924V94.3636H94.949V102.169C94.949 102.825 94.7966 103.364 94.4917 103.785C94.1867 104.206 93.7741 104.517 93.2537 104.719C92.7367 104.922 92.1534 105.023 91.5037 105.023ZM91.4888 100.653C91.9164 100.653 92.2776 100.553 92.5726 100.354C92.8709 100.152 93.0963 99.8639 93.2488 99.4893C93.4045 99.1115 93.4824 98.6591 93.4824 98.1321C93.4824 97.6184 93.4062 97.166 93.2537 96.7749C93.1013 96.3838 92.8775 96.0788 92.5826 95.8601C92.2876 95.638 91.923 95.527 91.4888 95.527C91.0414 95.527 90.6685 95.643 90.3702 95.875C90.0719 96.1037 89.8465 96.4152 89.6941 96.8097C89.5449 97.2041 89.4703 97.6449 89.4703 98.1321C89.4703 98.6326 89.5466 99.0717 89.699 99.4496C89.8515 99.8274 90.0769 100.122 90.3752 100.335C90.6768 100.547 91.048 100.653 91.4888 100.653ZM98.4292 97.4659V102H96.9426V91.8182H98.4093V95.6065H98.5037C98.6827 95.1955 98.9561 94.8691 99.324 94.6271C99.6919 94.3852 100.173 94.2642 100.766 94.2642C101.289 94.2642 101.747 94.3719 102.138 94.5874C102.532 94.8028 102.837 95.1243 103.053 95.5518C103.271 95.9761 103.381 96.5064 103.381 97.1428V102H101.894V97.3217C101.894 96.7616 101.75 96.3274 101.462 96.0192C101.173 95.7076 100.772 95.5518 100.259 95.5518C99.9074 95.5518 99.5925 95.6264 99.3141 95.7756C99.039 95.9247 98.8219 96.1435 98.6628 96.4318C98.507 96.7169 98.4292 97.0616 98.4292 97.4659ZM108.929 94.3636V95.5568H104.758V94.3636H108.929ZM105.877 92.5341H107.363V99.7578C107.363 100.046 107.406 100.263 107.492 100.409C107.579 100.552 107.69 100.649 107.825 100.702C107.965 100.752 108.115 100.777 108.278 100.777C108.397 100.777 108.502 100.769 108.591 100.752C108.681 100.736 108.75 100.722 108.8 100.712L109.068 101.94C108.982 101.973 108.86 102.007 108.7 102.04C108.541 102.076 108.343 102.096 108.104 102.099C107.713 102.106 107.348 102.036 107.01 101.891C106.672 101.745 106.399 101.519 106.19 101.214C105.981 100.91 105.877 100.527 105.877 100.066V92.5341ZM116.173 96.228L114.825 96.4666C114.769 96.2943 114.68 96.1302 114.557 95.9744C114.438 95.8187 114.275 95.6911 114.07 95.5916C113.864 95.4922 113.607 95.4425 113.299 95.4425C112.878 95.4425 112.527 95.5369 112.245 95.7259C111.963 95.9115 111.823 96.1518 111.823 96.4467C111.823 96.7019 111.917 96.9074 112.106 97.0632C112.295 97.219 112.6 97.3466 113.021 97.446L114.234 97.7244C114.936 97.8868 115.46 98.1371 115.805 98.4751C116.15 98.8132 116.322 99.2524 116.322 99.7926C116.322 100.25 116.189 100.658 115.924 101.016C115.662 101.37 115.296 101.649 114.825 101.851C114.358 102.053 113.816 102.154 113.2 102.154C112.345 102.154 111.647 101.972 111.107 101.607C110.566 101.239 110.235 100.717 110.112 100.041L111.549 99.8224C111.639 100.197 111.823 100.48 112.101 100.673C112.379 100.862 112.742 100.956 113.19 100.956C113.677 100.956 114.066 100.855 114.358 100.653C114.65 100.447 114.796 100.197 114.796 99.902C114.796 99.6634 114.706 99.4628 114.527 99.3004C114.352 99.138 114.081 99.0154 113.717 98.9325L112.424 98.6491C111.712 98.4867 111.185 98.2282 110.843 97.8736C110.505 97.5189 110.336 97.0698 110.336 96.5263C110.336 96.0755 110.462 95.6811 110.714 95.343C110.966 95.005 111.314 94.7415 111.758 94.5526C112.202 94.3603 112.711 94.2642 113.284 94.2642C114.11 94.2642 114.759 94.4432 115.233 94.8011C115.707 95.1558 116.02 95.6314 116.173 96.228ZM121.279 93.1406V91.8182H129.159V93.1406H125.982V102H124.45V93.1406H121.279ZM130.781 102V94.3636H132.267V102H130.781ZM131.531 93.1854C131.273 93.1854 131.051 93.0992 130.865 92.9268C130.683 92.7512 130.592 92.5424 130.592 92.3004C130.592 92.0552 130.683 91.8464 130.865 91.674C131.051 91.4983 131.273 91.4105 131.531 91.4105C131.79 91.4105 132.01 91.4983 132.192 91.674C132.378 91.8464 132.471 92.0552 132.471 92.3004C132.471 92.5424 132.378 92.7512 132.192 92.9268C132.01 93.0992 131.79 93.1854 131.531 93.1854ZM134.267 102V94.3636H135.694V95.6065H135.788C135.947 95.1856 136.207 94.8575 136.569 94.6222C136.93 94.3835 137.363 94.2642 137.866 94.2642C138.377 94.2642 138.804 94.3835 139.149 94.6222C139.497 94.8608 139.754 95.1889 139.92 95.6065H139.999C140.181 95.1989 140.471 94.8741 140.869 94.6321C141.267 94.3868 141.741 94.2642 142.291 94.2642C142.984 94.2642 143.549 94.4813 143.986 94.9155C144.427 95.3497 144.648 96.0043 144.648 96.8793V102H143.161V97.0185C143.161 96.5014 143.02 96.1269 142.738 95.8949C142.457 95.6629 142.12 95.5469 141.729 95.5469C141.245 95.5469 140.869 95.696 140.601 95.9943C140.332 96.2893 140.198 96.6688 140.198 97.1328V102H138.716V96.924C138.716 96.5097 138.587 96.1766 138.329 95.9247C138.07 95.6728 137.734 95.5469 137.319 95.5469C137.038 95.5469 136.778 95.6214 136.539 95.7706C136.304 95.9164 136.113 96.1203 135.967 96.3821C135.825 96.6439 135.753 96.9472 135.753 97.2919V102H134.267ZM149.931 102.154C149.179 102.154 148.531 101.993 147.987 101.672C147.447 101.347 147.029 100.891 146.734 100.305C146.443 99.7147 146.297 99.0237 146.297 98.2315C146.297 97.4493 146.443 96.7599 146.734 96.1634C147.029 95.5668 147.44 95.1011 147.967 94.7663C148.498 94.4316 149.117 94.2642 149.827 94.2642C150.258 94.2642 150.675 94.3355 151.08 94.478C151.484 94.6205 151.847 94.8442 152.168 95.1491C152.49 95.4541 152.743 95.8501 152.929 96.3374C153.115 96.8213 153.207 97.4096 153.207 98.1023V98.6293H147.137V97.5156H151.751C151.751 97.1245 151.671 96.7782 151.512 96.4766C151.353 96.1716 151.129 95.9313 150.841 95.7557C150.556 95.58 150.221 95.4922 149.837 95.4922C149.419 95.4922 149.054 95.5949 148.743 95.8004C148.435 96.0026 148.196 96.2678 148.027 96.5959C147.861 96.9207 147.778 97.2737 147.778 97.6548V98.5249C147.778 99.0353 147.868 99.4695 148.047 99.8274C148.229 100.185 148.483 100.459 148.808 100.648C149.132 100.833 149.512 100.926 149.946 100.926C150.228 100.926 150.485 100.886 150.717 100.807C150.949 100.724 151.149 100.601 151.318 100.439C151.487 100.277 151.616 100.076 151.706 99.8374L153.113 100.091C153 100.505 152.798 100.868 152.506 101.18C152.218 101.488 151.855 101.728 151.418 101.901C150.983 102.07 150.488 102.154 149.931 102.154Z" fill="black"/>
<path d="M25.1167 129L22.7303 120.273H23.8042L25.628 127.381H25.7132L27.5712 120.273H28.7644L30.6223 127.381H30.7076L32.5314 120.273H33.6053L31.2189 129H30.128L28.2019 122.045H28.1337L26.2076 129H25.1167ZM36.9206 129.136C36.29 129.136 35.7459 128.997 35.2885 128.719C34.834 128.438 34.4831 128.045 34.236 127.543C33.9917 127.037 33.8695 126.449 33.8695 125.778C33.8695 125.108 33.9917 124.517 34.236 124.006C34.4831 123.491 34.8269 123.091 35.2672 122.804C35.7104 122.514 36.2275 122.369 36.8184 122.369C37.1593 122.369 37.4959 122.426 37.8283 122.54C38.1607 122.653 38.4632 122.838 38.736 123.094C39.0087 123.347 39.226 123.682 39.388 124.099C39.5499 124.517 39.6309 125.031 39.6309 125.642V126.068H34.5854V125.199H38.6081C38.6081 124.83 38.5343 124.5 38.3865 124.21C38.2417 123.92 38.0343 123.692 37.7644 123.524C37.4973 123.357 37.182 123.273 36.8184 123.273C36.4178 123.273 36.0712 123.372 35.7786 123.571C35.4888 123.767 35.2658 124.023 35.1096 124.338C34.9533 124.653 34.8752 124.991 34.8752 125.352V125.932C34.8752 126.426 34.9604 126.845 35.1309 127.189C35.3042 127.53 35.5442 127.79 35.851 127.969C36.1578 128.145 36.5144 128.233 36.9206 128.233C37.1848 128.233 37.4235 128.196 37.6365 128.122C37.8525 128.045 38.0385 127.932 38.1948 127.781C38.351 127.628 38.4718 127.437 38.557 127.21L39.5286 127.483C39.4263 127.812 39.2544 128.102 39.013 128.352C38.7715 128.599 38.4732 128.793 38.1181 128.932C37.763 129.068 37.3638 129.136 36.9206 129.136ZM47.0073 129.136C46.4618 129.136 45.9803 128.999 45.5627 128.723C45.1451 128.445 44.8184 128.053 44.5826 127.547C44.3468 127.038 44.2289 126.438 44.2289 125.744C44.2289 125.057 44.3468 124.46 44.5826 123.955C44.8184 123.449 45.1465 123.058 45.5669 122.783C45.9874 122.507 46.4732 122.369 47.0243 122.369C47.4505 122.369 47.7871 122.44 48.0343 122.582C48.2843 122.722 48.4746 122.881 48.6053 123.06C48.7388 123.236 48.8425 123.381 48.9164 123.494H49.0016V120.273H50.0073V129H49.0357V127.994H48.9164C48.8425 128.114 48.7374 128.264 48.601 128.446C48.4647 128.625 48.2701 128.786 48.0172 128.928C47.7644 129.067 47.4277 129.136 47.0073 129.136ZM47.1436 128.233C47.5471 128.233 47.888 128.128 48.1664 127.918C48.4448 127.705 48.6564 127.411 48.8013 127.036C48.9462 126.658 49.0186 126.222 49.0186 125.727C49.0186 125.239 48.9476 124.811 48.8056 124.445C48.6635 124.075 48.4533 123.788 48.1749 123.584C47.8965 123.376 47.5527 123.273 47.1436 123.273C46.7175 123.273 46.3624 123.382 46.0783 123.601C45.7971 123.817 45.5854 124.111 45.4434 124.483C45.3042 124.852 45.2346 125.267 45.2346 125.727C45.2346 126.193 45.3056 126.616 45.4476 126.997C45.5925 127.375 45.8056 127.676 46.0868 127.901C46.3709 128.122 46.7232 128.233 47.1436 128.233ZM54.6479 129.136C54.057 129.136 53.5385 128.996 53.0925 128.714C52.6493 128.433 52.3027 128.04 52.0527 127.534C51.8056 127.028 51.682 126.437 51.682 125.761C51.682 125.08 51.8056 124.484 52.0527 123.976C52.3027 123.467 52.6493 123.072 53.0925 122.791C53.5385 122.51 54.057 122.369 54.6479 122.369C55.2388 122.369 55.7559 122.51 56.199 122.791C56.6451 123.072 56.9917 123.467 57.2388 123.976C57.4888 124.484 57.6138 125.08 57.6138 125.761C57.6138 126.437 57.4888 127.028 57.2388 127.534C56.9917 128.04 56.6451 128.433 56.199 128.714C55.7559 128.996 55.2388 129.136 54.6479 129.136ZM54.6479 128.233C55.0968 128.233 55.4661 128.118 55.7559 127.888C56.0456 127.658 56.2601 127.355 56.3993 126.98C56.5385 126.605 56.6081 126.199 56.6081 125.761C56.6081 125.324 56.5385 124.916 56.3993 124.538C56.2601 124.161 56.0456 123.855 55.7559 123.622C55.4661 123.389 55.0968 123.273 54.6479 123.273C54.199 123.273 53.8297 123.389 53.54 123.622C53.2502 123.855 53.0357 124.161 52.8965 124.538C52.7573 124.916 52.6877 125.324 52.6877 125.761C52.6877 126.199 52.7573 126.605 52.8965 126.98C53.0357 127.355 53.2502 127.658 53.54 127.888C53.8297 128.118 54.199 128.233 54.6479 128.233ZM60.1547 125.062V129H59.149V122.455H60.1206V123.477H60.2058C60.3592 123.145 60.5922 122.878 60.9047 122.676C61.2172 122.472 61.6206 122.369 62.1149 122.369C62.5581 122.369 62.9458 122.46 63.2782 122.642C63.6106 122.821 63.8691 123.094 64.0538 123.46C64.2385 123.824 64.3308 124.284 64.3308 124.841V129H63.3251V124.909C63.3251 124.395 63.1916 123.994 62.9245 123.707C62.6575 123.418 62.291 123.273 61.8251 123.273C61.5041 123.273 61.2172 123.342 60.9643 123.482C60.7143 123.621 60.5169 123.824 60.372 124.091C60.2271 124.358 60.1547 124.682 60.1547 125.062ZM67.0549 120.273V121.04C67.0549 121.273 67.0123 121.521 66.927 121.786C66.8446 122.047 66.7225 122.301 66.5605 122.548C66.4015 122.793 66.2083 123.006 65.981 123.188L65.4355 122.744C65.6145 122.489 65.7694 122.223 65.9 121.947C66.0336 121.669 66.1003 121.372 66.1003 121.057V120.273H67.0549ZM71.4057 122.455V123.307H68.0137V122.455H71.4057ZM69.0023 120.886H70.008V127.125C70.008 127.409 70.0492 127.622 70.1316 127.764C70.2168 127.903 70.3248 127.997 70.4554 128.045C70.589 128.091 70.7296 128.114 70.8773 128.114C70.9881 128.114 71.079 128.108 71.15 128.097C71.2211 128.082 71.2779 128.071 71.3205 128.062L71.525 128.966C71.4569 128.991 71.3617 129.017 71.2395 129.043C71.1174 129.071 70.9625 129.085 70.775 129.085C70.4909 129.085 70.2125 129.024 69.9398 128.902C69.6699 128.78 69.4455 128.594 69.2665 128.344C69.0904 128.094 69.0023 127.778 69.0023 127.398V120.886ZM77.2992 125.062V129H76.2935V120.273H77.2992V123.477H77.3844C77.5378 123.139 77.7679 122.871 78.0748 122.672C78.3844 122.47 78.7963 122.369 79.3105 122.369C79.7566 122.369 80.1472 122.459 80.4824 122.638C80.8176 122.814 81.0776 123.085 81.2623 123.452C81.4498 123.815 81.5435 124.278 81.5435 124.841V129H80.5378V124.909C80.5378 124.389 80.4029 123.987 80.133 123.703C79.8659 123.416 79.4952 123.273 79.0208 123.273C78.6912 123.273 78.3958 123.342 78.1344 123.482C77.8759 123.621 77.6713 123.824 77.5208 124.091C77.373 124.358 77.2992 124.682 77.2992 125.062ZM85.3095 129.153C84.8947 129.153 84.5183 129.075 84.1802 128.919C83.8422 128.76 83.5737 128.531 83.3748 128.233C83.176 127.932 83.0765 127.568 83.0765 127.142C83.0765 126.767 83.1504 126.463 83.2981 126.23C83.4458 125.994 83.6433 125.81 83.8904 125.676C84.1376 125.543 84.4103 125.443 84.7086 125.378C85.0098 125.31 85.3123 125.256 85.6163 125.216C86.014 125.165 86.3365 125.126 86.5836 125.101C86.8336 125.072 87.0154 125.026 87.1291 124.96C87.2456 124.895 87.3038 124.781 87.3038 124.619V124.585C87.3038 124.165 87.1887 123.838 86.9586 123.605C86.7314 123.372 86.3862 123.256 85.9231 123.256C85.443 123.256 85.0666 123.361 84.7939 123.571C84.5211 123.781 84.3294 124.006 84.2186 124.244L83.264 123.903C83.4345 123.506 83.6618 123.196 83.9458 122.974C84.2328 122.75 84.5453 122.594 84.8833 122.506C85.2243 122.415 85.5595 122.369 85.889 122.369C86.0993 122.369 86.3407 122.395 86.6135 122.446C86.889 122.494 87.1547 122.595 87.4103 122.749C87.6689 122.902 87.8833 123.134 88.0538 123.443C88.2243 123.753 88.3095 124.168 88.3095 124.688V129H87.3038V128.114H87.2527C87.1845 128.256 87.0708 128.408 86.9118 128.57C86.7527 128.732 86.541 128.869 86.2768 128.983C86.0126 129.097 85.6902 129.153 85.3095 129.153ZM85.4629 128.25C85.8606 128.25 86.1958 128.172 86.4686 128.016C86.7441 127.859 86.9515 127.658 87.0907 127.411C87.2328 127.163 87.3038 126.903 87.3038 126.631V125.71C87.2612 125.761 87.1674 125.808 87.0225 125.851C86.8805 125.891 86.7157 125.926 86.5282 125.957C86.3436 125.986 86.1632 126.011 85.987 126.034C85.8137 126.054 85.6731 126.071 85.5652 126.085C85.3038 126.119 85.0595 126.175 84.8322 126.251C84.6078 126.325 84.426 126.437 84.2868 126.588C84.1504 126.736 84.0822 126.937 84.0822 127.193C84.0822 127.543 84.2115 127.807 84.47 127.986C84.7314 128.162 85.0623 128.25 85.4629 128.25ZM95.263 122.455L92.8425 129H91.8198L89.3993 122.455H90.4902L92.2971 127.67H92.3652L94.1721 122.455H95.263ZM99.1003 129.136C98.4696 129.136 97.9256 128.997 97.4682 128.719C97.0137 128.438 96.6628 128.045 96.4157 127.543C96.1713 127.037 96.0492 126.449 96.0492 125.778C96.0492 125.108 96.1713 124.517 96.4157 124.006C96.6628 123.491 97.0066 123.091 97.4469 122.804C97.8901 122.514 98.4071 122.369 98.998 122.369C99.339 122.369 99.6756 122.426 100.008 122.54C100.34 122.653 100.643 122.838 100.916 123.094C101.188 123.347 101.406 123.682 101.568 124.099C101.73 124.517 101.811 125.031 101.811 125.642V126.068H96.7651V125.199H100.788C100.788 124.83 100.714 124.5 100.566 124.21C100.421 123.92 100.214 123.692 99.9441 123.524C99.677 123.357 99.3617 123.273 98.998 123.273C98.5975 123.273 98.2509 123.372 97.9583 123.571C97.6685 123.767 97.4455 124.023 97.2892 124.338C97.133 124.653 97.0549 124.991 97.0549 125.352V125.932C97.0549 126.426 97.1401 126.845 97.3105 127.189C97.4838 127.53 97.7239 127.79 98.0307 127.969C98.3375 128.145 98.6941 128.233 99.1003 128.233C99.3645 128.233 99.6032 128.196 99.8162 128.122C100.032 128.045 100.218 127.932 100.374 127.781C100.531 127.628 100.651 127.437 100.737 127.21L101.708 127.483C101.606 127.812 101.434 128.102 101.193 128.352C100.951 128.599 100.653 128.793 100.298 128.932C99.9426 129.068 99.5435 129.136 99.1003 129.136ZM108.642 129.153C108.227 129.153 107.85 129.075 107.512 128.919C107.174 128.76 106.906 128.531 106.707 128.233C106.508 127.932 106.409 127.568 106.409 127.142C106.409 126.767 106.482 126.463 106.63 126.23C106.778 125.994 106.975 125.81 107.222 125.676C107.47 125.543 107.742 125.443 108.041 125.378C108.342 125.31 108.644 125.256 108.948 125.216C109.346 125.165 109.669 125.126 109.916 125.101C110.166 125.072 110.347 125.026 110.461 124.96C110.578 124.895 110.636 124.781 110.636 124.619V124.585C110.636 124.165 110.521 123.838 110.291 123.605C110.063 123.372 109.718 123.256 109.255 123.256C108.775 123.256 108.399 123.361 108.126 123.571C107.853 123.781 107.661 124.006 107.551 124.244L106.596 123.903C106.767 123.506 106.994 123.196 107.278 122.974C107.565 122.75 107.877 122.594 108.215 122.506C108.556 122.415 108.892 122.369 109.221 122.369C109.431 122.369 109.673 122.395 109.945 122.446C110.221 122.494 110.487 122.595 110.742 122.749C111.001 122.902 111.215 123.134 111.386 123.443C111.556 123.753 111.642 124.168 111.642 124.688V129H110.636V128.114H110.585C110.517 128.256 110.403 128.408 110.244 128.57C110.085 128.732 109.873 128.869 109.609 128.983C109.345 129.097 109.022 129.153 108.642 129.153ZM108.795 128.25C109.193 128.25 109.528 128.172 109.801 128.016C110.076 127.859 110.284 127.658 110.423 127.411C110.565 127.163 110.636 126.903 110.636 126.631V125.71C110.593 125.761 110.499 125.808 110.355 125.851C110.213 125.891 110.048 125.926 109.86 125.957C109.676 125.986 109.495 126.011 109.319 126.034C109.146 126.054 109.005 126.071 108.897 126.085C108.636 126.119 108.392 126.175 108.164 126.251C107.94 126.325 107.758 126.437 107.619 126.588C107.482 126.736 107.414 126.937 107.414 127.193C107.414 127.543 107.544 127.807 107.802 127.986C108.063 128.162 108.394 128.25 108.795 128.25ZM114.483 125.062V129H113.477V122.455H114.449V123.477H114.534C114.687 123.145 114.92 122.878 115.233 122.676C115.545 122.472 115.949 122.369 116.443 122.369C116.886 122.369 117.274 122.46 117.606 122.642C117.939 122.821 118.197 123.094 118.382 123.46C118.567 123.824 118.659 124.284 118.659 124.841V129H117.653V124.909C117.653 124.395 117.52 123.994 117.253 123.707C116.986 123.418 116.619 123.273 116.153 123.273C115.832 123.273 115.545 123.342 115.292 123.482C115.042 123.621 114.845 123.824 114.7 124.091C114.555 124.358 114.483 124.682 114.483 125.062ZM120.91 131.455C120.74 131.455 120.588 131.44 120.454 131.412C120.32 131.386 120.228 131.361 120.177 131.335L120.433 130.449C120.677 130.511 120.893 130.534 121.08 130.517C121.268 130.5 121.434 130.416 121.579 130.266C121.727 130.118 121.862 129.878 121.984 129.545L122.171 129.034L119.751 122.455H120.842L122.649 127.67H122.717L124.524 122.455H125.615L122.836 129.955C122.711 130.293 122.556 130.572 122.372 130.794C122.187 131.018 121.972 131.185 121.728 131.293C121.487 131.401 121.214 131.455 120.91 131.455ZM131.323 125.062V129H130.317V122.455H131.289V123.477H131.374C131.527 123.145 131.76 122.878 132.073 122.676C132.385 122.472 132.789 122.369 133.283 122.369C133.726 122.369 134.114 122.46 134.446 122.642C134.779 122.821 135.037 123.094 135.222 123.46C135.406 123.824 135.499 124.284 135.499 124.841V129H134.493V124.909C134.493 124.395 134.36 123.994 134.093 123.707C133.825 123.418 133.459 123.273 132.993 123.273C132.672 123.273 132.385 123.342 132.132 123.482C131.882 123.621 131.685 123.824 131.54 124.091C131.395 124.358 131.323 124.682 131.323 125.062ZM139.996 129.136C139.405 129.136 138.886 128.996 138.44 128.714C137.997 128.433 137.65 128.04 137.4 127.534C137.153 127.028 137.03 126.437 137.03 125.761C137.03 125.08 137.153 124.484 137.4 123.976C137.65 123.467 137.997 123.072 138.44 122.791C138.886 122.51 139.405 122.369 139.996 122.369C140.586 122.369 141.104 122.51 141.547 122.791C141.993 123.072 142.339 123.467 142.586 123.976C142.836 124.484 142.961 125.08 142.961 125.761C142.961 126.437 142.836 127.028 142.586 127.534C142.339 128.04 141.993 128.433 141.547 128.714C141.104 128.996 140.586 129.136 139.996 129.136ZM139.996 128.233C140.444 128.233 140.814 128.118 141.104 127.888C141.393 127.658 141.608 127.355 141.747 126.98C141.886 126.605 141.956 126.199 141.956 125.761C141.956 125.324 141.886 124.916 141.747 124.538C141.608 124.161 141.393 123.855 141.104 123.622C140.814 123.389 140.444 123.273 139.996 123.273C139.547 123.273 139.177 123.389 138.888 123.622C138.598 123.855 138.383 124.161 138.244 124.538C138.105 124.916 138.035 125.324 138.035 125.761C138.035 126.199 138.105 126.605 138.244 126.98C138.383 127.355 138.598 127.658 138.888 127.888C139.177 128.118 139.547 128.233 139.996 128.233ZM147.343 122.455V123.307H143.951V122.455H147.343ZM144.94 120.886H145.945V127.125C145.945 127.409 145.987 127.622 146.069 127.764C146.154 127.903 146.262 127.997 146.393 128.045C146.526 128.091 146.667 128.114 146.815 128.114C146.926 128.114 147.017 128.108 147.088 128.097C147.159 128.082 147.215 128.071 147.258 128.062L147.463 128.966C147.394 128.991 147.299 129.017 147.177 129.043C147.055 129.071 146.9 129.085 146.713 129.085C146.428 129.085 146.15 129.024 145.877 128.902C145.607 128.78 145.383 128.594 145.204 128.344C145.028 128.094 144.94 127.778 144.94 127.398V120.886ZM148.856 129V122.455H149.862V129H148.856ZM149.367 121.364C149.171 121.364 149.002 121.297 148.86 121.163C148.721 121.03 148.651 120.869 148.651 120.682C148.651 120.494 148.721 120.334 148.86 120.2C149.002 120.067 149.171 120 149.367 120C149.563 120 149.731 120.067 149.87 120.2C150.012 120.334 150.083 120.494 150.083 120.682C150.083 120.869 150.012 121.03 149.87 121.163C149.731 121.297 149.563 121.364 149.367 121.364ZM154.363 129.136C153.749 129.136 153.221 128.991 152.778 128.702C152.334 128.412 151.993 128.013 151.755 127.504C151.516 126.996 151.397 126.415 151.397 125.761C151.397 125.097 151.519 124.51 151.763 124.001C152.01 123.49 152.354 123.091 152.795 122.804C153.238 122.514 153.755 122.369 154.346 122.369C154.806 122.369 155.221 122.455 155.59 122.625C155.959 122.795 156.262 123.034 156.498 123.341C156.733 123.648 156.88 124.006 156.937 124.415H155.931C155.854 124.116 155.684 123.852 155.42 123.622C155.158 123.389 154.806 123.273 154.363 123.273C153.971 123.273 153.627 123.375 153.331 123.58C153.039 123.781 152.81 124.067 152.645 124.436C152.483 124.803 152.403 125.233 152.403 125.727C152.403 126.233 152.482 126.673 152.641 127.048C152.803 127.423 153.03 127.714 153.323 127.922C153.618 128.129 153.965 128.233 154.363 128.233C154.624 128.233 154.861 128.188 155.074 128.097C155.287 128.006 155.468 127.875 155.616 127.705C155.763 127.534 155.868 127.33 155.931 127.091H156.937C156.88 127.477 156.739 127.825 156.515 128.135C156.293 128.442 155.999 128.686 155.633 128.868C155.269 129.047 154.846 129.136 154.363 129.136ZM161.151 129.136C160.52 129.136 159.976 128.997 159.519 128.719C159.064 128.438 158.714 128.045 158.466 127.543C158.222 127.037 158.1 126.449 158.1 125.778C158.1 125.108 158.222 124.517 158.466 124.006C158.714 123.491 159.057 123.091 159.498 122.804C159.941 122.514 160.458 122.369 161.049 122.369C161.39 122.369 161.726 122.426 162.059 122.54C162.391 122.653 162.694 122.838 162.966 123.094C163.239 123.347 163.456 123.682 163.618 124.099C163.78 124.517 163.861 125.031 163.861 125.642V126.068H158.816V125.199H162.839C162.839 124.83 162.765 124.5 162.617 124.21C162.472 123.92 162.265 123.692 161.995 123.524C161.728 123.357 161.412 123.273 161.049 123.273C160.648 123.273 160.302 123.372 160.009 123.571C159.719 123.767 159.496 124.023 159.34 124.338C159.184 124.653 159.106 124.991 159.106 125.352V125.932C159.106 126.426 159.191 126.845 159.361 127.189C159.535 127.53 159.775 127.79 160.081 127.969C160.388 128.145 160.745 128.233 161.151 128.233C161.415 128.233 161.654 128.196 161.867 128.122C162.083 128.045 162.269 127.932 162.425 127.781C162.581 127.628 162.702 127.437 162.787 127.21L163.759 127.483C163.657 127.812 163.485 128.102 163.243 128.352C163.002 128.599 162.704 128.793 162.349 128.932C161.993 129.068 161.594 129.136 161.151 129.136ZM171.681 122.455V123.307H168.153V122.455H171.681ZM169.209 129V121.551C169.209 121.176 169.297 120.864 169.474 120.614C169.65 120.364 169.878 120.176 170.16 120.051C170.441 119.926 170.738 119.864 171.05 119.864C171.297 119.864 171.499 119.884 171.655 119.923C171.812 119.963 171.928 120 172.005 120.034L171.715 120.903C171.664 120.886 171.593 120.865 171.502 120.839C171.414 120.814 171.297 120.801 171.153 120.801C170.82 120.801 170.58 120.885 170.432 121.053C170.287 121.22 170.215 121.466 170.215 121.79V129H169.209ZM175.48 129.136C174.889 129.136 174.371 128.996 173.925 128.714C173.481 128.433 173.135 128.04 172.885 127.534C172.638 127.028 172.514 126.437 172.514 125.761C172.514 125.08 172.638 124.484 172.885 123.976C173.135 123.467 173.481 123.072 173.925 122.791C174.371 122.51 174.889 122.369 175.48 122.369C176.071 122.369 176.588 122.51 177.031 122.791C177.477 123.072 177.824 123.467 178.071 123.976C178.321 124.484 178.446 125.08 178.446 125.761C178.446 126.437 178.321 127.028 178.071 127.534C177.824 128.04 177.477 128.433 177.031 128.714C176.588 128.996 176.071 129.136 175.48 129.136ZM175.48 128.233C175.929 128.233 176.298 128.118 176.588 127.888C176.878 127.658 177.092 127.355 177.231 126.98C177.371 126.605 177.44 126.199 177.44 125.761C177.44 125.324 177.371 124.916 177.231 124.538C177.092 124.161 176.878 123.855 176.588 123.622C176.298 123.389 175.929 123.273 175.48 123.273C175.031 123.273 174.662 123.389 174.372 123.622C174.082 123.855 173.868 124.161 173.729 124.538C173.589 124.916 173.52 125.324 173.52 125.761C173.52 126.199 173.589 126.605 173.729 126.98C173.868 127.355 174.082 127.658 174.372 127.888C174.662 128.118 175.031 128.233 175.48 128.233ZM179.981 129V122.455H180.953V123.443H181.021C181.14 123.119 181.356 122.857 181.669 122.655C181.981 122.453 182.333 122.352 182.725 122.352C182.799 122.352 182.892 122.354 183.002 122.357C183.113 122.359 183.197 122.364 183.254 122.369V123.392C183.22 123.384 183.142 123.371 183.019 123.354C182.9 123.334 182.774 123.324 182.64 123.324C182.322 123.324 182.038 123.391 181.788 123.524C181.541 123.655 181.345 123.837 181.2 124.07C181.058 124.3 180.987 124.562 180.987 124.858V129H179.981ZM28.6951 146.455C28.5247 146.455 28.3727 146.44 28.2392 146.412C28.1056 146.386 28.0133 146.361 27.9622 146.335L28.2179 145.449C28.4622 145.511 28.6781 145.534 28.8656 145.517C29.0531 145.5 29.2193 145.416 29.3642 145.266C29.5119 145.118 29.6468 144.878 29.769 144.545L29.9565 144.034L27.536 137.455H28.627L30.4338 142.67H30.502L32.3088 137.455H33.3997L30.6213 144.955C30.4963 145.293 30.3414 145.572 30.1568 145.794C29.9721 146.018 29.7576 146.185 29.5133 146.293C29.2718 146.401 28.9991 146.455 28.6951 146.455ZM37.1518 144.136C36.5609 144.136 36.0424 143.996 35.5964 143.714C35.1532 143.433 34.8066 143.04 34.5566 142.534C34.3095 142.028 34.1859 141.437 34.1859 140.761C34.1859 140.08 34.3095 139.484 34.5566 138.976C34.8066 138.467 35.1532 138.072 35.5964 137.791C36.0424 137.51 36.5609 137.369 37.1518 137.369C37.7427 137.369 38.2598 137.51 38.7029 137.791C39.149 138.072 39.4956 138.467 39.7427 138.976C39.9927 139.484 40.1177 140.08 40.1177 140.761C40.1177 141.437 39.9927 142.028 39.7427 142.534C39.4956 143.04 39.149 143.433 38.7029 143.714C38.2598 143.996 37.7427 144.136 37.1518 144.136ZM37.1518 143.233C37.6007 143.233 37.97 143.118 38.2598 142.888C38.5495 142.658 38.764 142.355 38.9032 141.98C39.0424 141.605 39.112 141.199 39.112 140.761C39.112 140.324 39.0424 139.916 38.9032 139.538C38.764 139.161 38.5495 138.855 38.2598 138.622C37.97 138.389 37.6007 138.273 37.1518 138.273C36.7029 138.273 36.3336 138.389 36.0439 138.622C35.7541 138.855 35.5396 139.161 35.4004 139.538C35.2612 139.916 35.1916 140.324 35.1916 140.761C35.1916 141.199 35.2612 141.605 35.4004 141.98C35.5396 142.355 35.7541 142.658 36.0439 142.888C36.3336 143.118 36.7029 143.233 37.1518 143.233ZM45.7779 141.324V137.455H46.7836V144H45.7779V142.892H45.7097C45.5563 143.224 45.3176 143.507 44.9938 143.74C44.6699 143.97 44.2608 144.085 43.7665 144.085C43.3574 144.085 42.9938 143.996 42.6756 143.817C42.3574 143.635 42.1074 143.362 41.9256 142.999C41.7438 142.632 41.6529 142.17 41.6529 141.614V137.455H42.6586V141.545C42.6586 142.023 42.7921 142.403 43.0591 142.688C43.329 142.972 43.6728 143.114 44.0904 143.114C44.3404 143.114 44.5946 143.05 44.8532 142.922C45.1145 142.794 45.3333 142.598 45.5094 142.334C45.6884 142.07 45.7779 141.733 45.7779 141.324ZM50.1255 142.807L50.0574 143.267C50.0091 143.591 49.9352 143.938 49.8358 144.307C49.7392 144.676 49.6383 145.024 49.5332 145.351C49.4281 145.678 49.3414 145.938 49.2733 146.131H48.5062C48.5431 145.949 48.5914 145.709 48.6511 145.411C48.7108 145.112 48.7704 144.778 48.8301 144.409C48.8926 144.043 48.9437 143.668 48.9835 143.284L49.0346 142.807H50.1255ZM58.2104 137.455V138.307H54.8184V137.455H58.2104ZM55.807 135.886H56.8127V142.125C56.8127 142.409 56.8539 142.622 56.9363 142.764C57.0215 142.903 57.1294 142.997 57.2601 143.045C57.3936 143.091 57.5343 143.114 57.682 143.114C57.7928 143.114 57.8837 143.108 57.9547 143.097C58.0257 143.082 58.0826 143.071 58.1252 143.062L58.3297 143.966C58.2615 143.991 58.1664 144.017 58.0442 144.043C57.9221 144.071 57.7672 144.085 57.5797 144.085C57.2956 144.085 57.0172 144.024 56.7445 143.902C56.4746 143.78 56.2502 143.594 56.0712 143.344C55.8951 143.094 55.807 142.778 55.807 142.398V135.886ZM59.7232 144V137.455H60.7289V144H59.7232ZM60.2346 136.364C60.0385 136.364 59.8695 136.297 59.7275 136.163C59.5882 136.03 59.5186 135.869 59.5186 135.682C59.5186 135.494 59.5882 135.334 59.7275 135.2C59.8695 135.067 60.0385 135 60.2346 135C60.4306 135 60.5982 135.067 60.7374 135.2C60.8794 135.334 60.9505 135.494 60.9505 135.682C60.9505 135.869 60.8794 136.03 60.7374 136.163C60.5982 136.297 60.4306 136.364 60.2346 136.364ZM63.5765 135.273V144H62.5708V135.273H63.5765ZM66.4242 135.273V144H65.4185V135.273H66.4242ZM74.4877 137.455V138.307H71.0957V137.455H74.4877ZM72.0843 135.886H73.09V142.125C73.09 142.409 73.1312 142.622 73.2136 142.764C73.2988 142.903 73.4068 142.997 73.5375 143.045C73.671 143.091 73.8116 143.114 73.9593 143.114C74.0701 143.114 74.161 143.108 74.2321 143.097C74.3031 143.082 74.3599 143.071 74.4025 143.062L74.6071 143.966C74.5389 143.991 74.4437 144.017 74.3216 144.043C74.1994 144.071 74.0446 144.085 73.8571 144.085C73.573 144.085 73.2946 144.024 73.0218 143.902C72.752 143.78 72.5275 143.594 72.3485 143.344C72.1724 143.094 72.0843 142.778 72.0843 142.398V135.886ZM77.1468 140.062V144H76.1412V135.273H77.1468V138.477H77.2321C77.3855 138.139 77.6156 137.871 77.9224 137.672C78.2321 137.47 78.644 137.369 79.1582 137.369C79.6042 137.369 79.9949 137.459 80.3301 137.638C80.6653 137.814 80.9252 138.085 81.1099 138.452C81.2974 138.815 81.3912 139.278 81.3912 139.841V144H80.3855V139.909C80.3855 139.389 80.2505 138.987 79.9806 138.703C79.7136 138.416 79.3429 138.273 78.8684 138.273C78.5389 138.273 78.2434 138.342 77.9821 138.482C77.7235 138.621 77.519 138.824 77.3684 139.091C77.2207 139.358 77.1468 139.682 77.1468 140.062ZM85.9753 144.136C85.3446 144.136 84.8006 143.997 84.3432 143.719C83.8887 143.438 83.5378 143.045 83.2907 142.543C83.0463 142.037 82.9242 141.449 82.9242 140.778C82.9242 140.108 83.0463 139.517 83.2907 139.006C83.5378 138.491 83.8816 138.091 84.3219 137.804C84.7651 137.514 85.2821 137.369 85.873 137.369C86.214 137.369 86.5506 137.426 86.883 137.54C87.2154 137.653 87.5179 137.838 87.7907 138.094C88.0634 138.347 88.2807 138.682 88.4426 139.099C88.6046 139.517 88.6855 140.031 88.6855 140.642V141.068H83.6401V140.199H87.6628C87.6628 139.83 87.589 139.5 87.4412 139.21C87.2963 138.92 87.089 138.692 86.8191 138.524C86.552 138.357 86.2367 138.273 85.873 138.273C85.4725 138.273 85.1259 138.372 84.8333 138.571C84.5435 138.767 84.3205 139.023 84.1642 139.338C84.008 139.653 83.9299 139.991 83.9299 140.352V140.932C83.9299 141.426 84.0151 141.845 84.1855 142.189C84.3588 142.53 84.5989 142.79 84.9057 142.969C85.2125 143.145 85.5691 143.233 85.9753 143.233C86.2395 143.233 86.4782 143.196 86.6912 143.122C86.9071 143.045 87.0932 142.932 87.2495 142.781C87.4057 142.628 87.5265 142.437 87.6117 142.21L88.5833 142.483C88.481 142.812 88.3091 143.102 88.0676 143.352C87.8262 143.599 87.5279 143.793 87.1728 143.932C86.8176 144.068 86.4185 144.136 85.9753 144.136ZM91.2211 140.062V144H90.2154V137.455H91.187V138.477H91.2722C91.4256 138.145 91.6586 137.878 91.9711 137.676C92.2836 137.472 92.687 137.369 93.1813 137.369C93.6245 137.369 94.0123 137.46 94.3446 137.642C94.677 137.821 94.9355 138.094 95.1202 138.46C95.3049 138.824 95.3972 139.284 95.3972 139.841V144H94.3915V139.909C94.3915 139.395 94.258 138.994 93.9909 138.707C93.7239 138.418 93.3574 138.273 92.8915 138.273C92.5705 138.273 92.2836 138.342 92.0307 138.482C91.7807 138.621 91.5833 138.824 91.4384 139.091C91.2935 139.358 91.2211 139.682 91.2211 140.062ZM101.258 146.455C101.087 146.455 100.935 146.44 100.802 146.412C100.668 146.386 100.576 146.361 100.525 146.335L100.78 145.449C101.025 145.511 101.241 145.534 101.428 145.517C101.616 145.5 101.782 145.416 101.927 145.266C102.074 145.118 102.209 144.878 102.331 144.545L102.519 144.034L100.099 137.455H101.189L102.996 142.67H103.064L104.871 137.455H105.962L103.184 144.955C103.059 145.293 102.904 145.572 102.719 145.794C102.535 146.018 102.32 146.185 102.076 146.293C101.834 146.401 101.562 146.455 101.258 146.455ZM109.714 144.136C109.123 144.136 108.605 143.996 108.159 143.714C107.716 143.433 107.369 143.04 107.119 142.534C106.872 142.028 106.748 141.437 106.748 140.761C106.748 140.08 106.872 139.484 107.119 138.976C107.369 138.467 107.716 138.072 108.159 137.791C108.605 137.51 109.123 137.369 109.714 137.369C110.305 137.369 110.822 137.51 111.265 137.791C111.711 138.072 112.058 138.467 112.305 138.976C112.555 139.484 112.68 140.08 112.68 140.761C112.68 141.437 112.555 142.028 112.305 142.534C112.058 143.04 111.711 143.433 111.265 143.714C110.822 143.996 110.305 144.136 109.714 144.136ZM109.714 143.233C110.163 143.233 110.532 143.118 110.822 142.888C111.112 142.658 111.327 142.355 111.466 141.98C111.605 141.605 111.675 141.199 111.675 140.761C111.675 140.324 111.605 139.916 111.466 139.538C111.327 139.161 111.112 138.855 110.822 138.622C110.532 138.389 110.163 138.273 109.714 138.273C109.265 138.273 108.896 138.389 108.606 138.622C108.317 138.855 108.102 139.161 107.963 139.538C107.824 139.916 107.754 140.324 107.754 140.761C107.754 141.199 107.824 141.605 107.963 141.98C108.102 142.355 108.317 142.658 108.606 142.888C108.896 143.118 109.265 143.233 109.714 143.233ZM118.34 141.324V137.455H119.346V144H118.34V142.892H118.272C118.119 143.224 117.88 143.507 117.556 143.74C117.232 143.97 116.823 144.085 116.329 144.085C115.92 144.085 115.556 143.996 115.238 143.817C114.92 143.635 114.67 143.362 114.488 142.999C114.306 142.632 114.215 142.17 114.215 141.614V137.455H115.221V141.545C115.221 142.023 115.355 142.403 115.622 142.688C115.892 142.972 116.235 143.114 116.653 143.114C116.903 143.114 117.157 143.05 117.416 142.922C117.677 142.794 117.896 142.598 118.072 142.334C118.251 142.07 118.34 141.733 118.34 141.324ZM127.222 144.136C126.608 144.136 126.08 143.991 125.637 143.702C125.194 143.412 124.853 143.013 124.614 142.504C124.376 141.996 124.256 141.415 124.256 140.761C124.256 140.097 124.378 139.51 124.623 139.001C124.87 138.49 125.214 138.091 125.654 137.804C126.097 137.514 126.614 137.369 127.205 137.369C127.665 137.369 128.08 137.455 128.449 137.625C128.819 137.795 129.121 138.034 129.357 138.341C129.593 138.648 129.739 139.006 129.796 139.415H128.79C128.714 139.116 128.543 138.852 128.279 138.622C128.018 138.389 127.665 138.273 127.222 138.273C126.83 138.273 126.486 138.375 126.191 138.58C125.898 138.781 125.67 139.067 125.505 139.436C125.343 139.803 125.262 140.233 125.262 140.727C125.262 141.233 125.341 141.673 125.501 142.048C125.662 142.423 125.89 142.714 126.182 142.922C126.478 143.129 126.824 143.233 127.222 143.233C127.483 143.233 127.721 143.188 127.934 143.097C128.147 143.006 128.327 142.875 128.475 142.705C128.623 142.534 128.728 142.33 128.79 142.091H129.796C129.739 142.477 129.599 142.825 129.374 143.135C129.153 143.442 128.858 143.686 128.492 143.868C128.128 144.047 127.705 144.136 127.222 144.136ZM133.192 144.153C132.778 144.153 132.401 144.075 132.063 143.919C131.725 143.76 131.456 143.531 131.258 143.233C131.059 142.932 130.959 142.568 130.959 142.142C130.959 141.767 131.033 141.463 131.181 141.23C131.329 140.994 131.526 140.81 131.773 140.676C132.02 140.543 132.293 140.443 132.591 140.378C132.893 140.31 133.195 140.256 133.499 140.216C133.897 140.165 134.219 140.126 134.466 140.101C134.716 140.072 134.898 140.026 135.012 139.96C135.128 139.895 135.187 139.781 135.187 139.619V139.585C135.187 139.165 135.072 138.838 134.841 138.605C134.614 138.372 134.269 138.256 133.806 138.256C133.326 138.256 132.949 138.361 132.677 138.571C132.404 138.781 132.212 139.006 132.101 139.244L131.147 138.903C131.317 138.506 131.545 138.196 131.829 137.974C132.116 137.75 132.428 137.594 132.766 137.506C133.107 137.415 133.442 137.369 133.772 137.369C133.982 137.369 134.224 137.395 134.496 137.446C134.772 137.494 135.037 137.595 135.293 137.749C135.552 137.902 135.766 138.134 135.937 138.443C136.107 138.753 136.192 139.168 136.192 139.688V144H135.187V143.114H135.135C135.067 143.256 134.954 143.408 134.795 143.57C134.635 143.732 134.424 143.869 134.16 143.983C133.895 144.097 133.573 144.153 133.192 144.153ZM133.346 143.25C133.743 143.25 134.079 143.172 134.351 143.016C134.627 142.859 134.834 142.658 134.974 142.411C135.116 142.163 135.187 141.903 135.187 141.631V140.71C135.144 140.761 135.05 140.808 134.905 140.851C134.763 140.891 134.599 140.926 134.411 140.957C134.226 140.986 134.046 141.011 133.87 141.034C133.697 141.054 133.556 141.071 133.448 141.085C133.187 141.119 132.942 141.175 132.715 141.251C132.491 141.325 132.309 141.437 132.17 141.588C132.033 141.736 131.965 141.937 131.965 142.193C131.965 142.543 132.094 142.807 132.353 142.986C132.614 143.162 132.945 143.25 133.346 143.25ZM139.034 140.062V144H138.028V137.455H138.999V138.477H139.085C139.238 138.145 139.471 137.878 139.784 137.676C140.096 137.472 140.499 137.369 140.994 137.369C141.437 137.369 141.825 137.46 142.157 137.642C142.49 137.821 142.748 138.094 142.933 138.46C143.117 138.824 143.21 139.284 143.21 139.841V144H142.204V139.909C142.204 139.395 142.07 138.994 141.803 138.707C141.536 138.418 141.17 138.273 140.704 138.273C140.383 138.273 140.096 138.342 139.843 138.482C139.593 138.621 139.396 138.824 139.251 139.091C139.106 139.358 139.034 139.682 139.034 140.062ZM153.059 138.92L152.155 139.176C152.099 139.026 152.015 138.879 151.904 138.737C151.796 138.592 151.648 138.473 151.461 138.379C151.273 138.286 151.033 138.239 150.741 138.239C150.34 138.239 150.006 138.331 149.739 138.516C149.475 138.697 149.343 138.929 149.343 139.21C149.343 139.46 149.434 139.658 149.616 139.803C149.797 139.947 150.081 140.068 150.468 140.165L151.439 140.403C152.025 140.545 152.461 140.763 152.748 141.055C153.035 141.345 153.178 141.719 153.178 142.176C153.178 142.551 153.07 142.886 152.854 143.182C152.641 143.477 152.343 143.71 151.959 143.881C151.576 144.051 151.13 144.136 150.621 144.136C149.954 144.136 149.401 143.991 148.964 143.702C148.526 143.412 148.249 142.989 148.133 142.432L149.087 142.193C149.178 142.545 149.35 142.81 149.603 142.986C149.858 143.162 150.192 143.25 150.604 143.25C151.073 143.25 151.445 143.151 151.721 142.952C151.999 142.75 152.138 142.509 152.138 142.227C152.138 142 152.059 141.81 151.9 141.656C151.741 141.5 151.496 141.384 151.167 141.307L150.076 141.051C149.476 140.909 149.036 140.689 148.755 140.391C148.476 140.089 148.337 139.713 148.337 139.261C148.337 138.892 148.441 138.565 148.648 138.281C148.858 137.997 149.144 137.774 149.505 137.612C149.868 137.45 150.28 137.369 150.741 137.369C151.388 137.369 151.897 137.511 152.266 137.795C152.638 138.08 152.903 138.455 153.059 138.92ZM155.698 140.062V144H154.692V135.273H155.698V138.477H155.783C155.936 138.139 156.166 137.871 156.473 137.672C156.783 137.47 157.195 137.369 157.709 137.369C158.155 137.369 158.546 137.459 158.881 137.638C159.216 137.814 159.476 138.085 159.661 138.452C159.848 138.815 159.942 139.278 159.942 139.841V144H158.936V139.909C158.936 139.389 158.801 138.987 158.531 138.703C158.264 138.416 157.894 138.273 157.419 138.273C157.09 138.273 156.794 138.342 156.533 138.482C156.274 138.621 156.07 138.824 155.919 139.091C155.771 139.358 155.698 139.682 155.698 140.062ZM163.708 144.153C163.293 144.153 162.917 144.075 162.579 143.919C162.241 143.76 161.972 143.531 161.773 143.233C161.574 142.932 161.475 142.568 161.475 142.142C161.475 141.767 161.549 141.463 161.697 141.23C161.844 140.994 162.042 140.81 162.289 140.676C162.536 140.543 162.809 140.443 163.107 140.378C163.408 140.31 163.711 140.256 164.015 140.216C164.412 140.165 164.735 140.126 164.982 140.101C165.232 140.072 165.414 140.026 165.528 139.96C165.644 139.895 165.702 139.781 165.702 139.619V139.585C165.702 139.165 165.587 138.838 165.357 138.605C165.13 138.372 164.785 138.256 164.322 138.256C163.841 138.256 163.465 138.361 163.192 138.571C162.92 138.781 162.728 139.006 162.617 139.244L161.662 138.903C161.833 138.506 162.06 138.196 162.344 137.974C162.631 137.75 162.944 137.594 163.282 137.506C163.623 137.415 163.958 137.369 164.287 137.369C164.498 137.369 164.739 137.395 165.012 137.446C165.287 137.494 165.553 137.595 165.809 137.749C166.067 137.902 166.282 138.134 166.452 138.443C166.623 138.753 166.708 139.168 166.708 139.688V144H165.702V143.114H165.651C165.583 143.256 165.469 143.408 165.31 143.57C165.151 143.732 164.939 143.869 164.675 143.983C164.411 144.097 164.089 144.153 163.708 144.153ZM163.861 143.25C164.259 143.25 164.594 143.172 164.867 143.016C165.143 142.859 165.35 142.658 165.489 142.411C165.631 142.163 165.702 141.903 165.702 141.631V140.71C165.66 140.761 165.566 140.808 165.421 140.851C165.279 140.891 165.114 140.926 164.927 140.957C164.742 140.986 164.562 141.011 164.385 141.034C164.212 141.054 164.072 141.071 163.964 141.085C163.702 141.119 163.458 141.175 163.231 141.251C163.006 141.325 162.824 141.437 162.685 141.588C162.549 141.736 162.481 141.937 162.481 142.193C162.481 142.543 162.61 142.807 162.868 142.986C163.13 143.162 163.461 143.25 163.861 143.25ZM168.544 144V137.455H169.515V138.443H169.583C169.703 138.119 169.919 137.857 170.231 137.655C170.544 137.453 170.896 137.352 171.288 137.352C171.362 137.352 171.454 137.354 171.565 137.357C171.676 137.359 171.759 137.364 171.816 137.369V138.392C171.782 138.384 171.704 138.371 171.582 138.354C171.463 138.334 171.336 138.324 171.203 138.324C170.884 138.324 170.6 138.391 170.35 138.524C170.103 138.655 169.907 138.837 169.762 139.07C169.62 139.3 169.549 139.562 169.549 139.858V144H168.544ZM175.553 144.136C174.923 144.136 174.379 143.997 173.921 143.719C173.467 143.438 173.116 143.045 172.869 142.543C172.624 142.037 172.502 141.449 172.502 140.778C172.502 140.108 172.624 139.517 172.869 139.006C173.116 138.491 173.46 138.091 173.9 137.804C174.343 137.514 174.86 137.369 175.451 137.369C175.792 137.369 176.129 137.426 176.461 137.54C176.794 137.653 177.096 137.838 177.369 138.094C177.642 138.347 177.859 138.682 178.021 139.099C178.183 139.517 178.264 140.031 178.264 140.642V141.068H173.218V140.199H177.241C177.241 139.83 177.167 139.5 177.019 139.21C176.874 138.92 176.667 138.692 176.397 138.524C176.13 138.357 175.815 138.273 175.451 138.273C175.051 138.273 174.704 138.372 174.411 138.571C174.122 138.767 173.899 139.023 173.742 139.338C173.586 139.653 173.508 139.991 173.508 140.352V140.932C173.508 141.426 173.593 141.845 173.764 142.189C173.937 142.53 174.177 142.79 174.484 142.969C174.791 143.145 175.147 143.233 175.553 143.233C175.818 143.233 176.056 143.196 176.269 143.122C176.485 143.045 176.671 142.932 176.828 142.781C176.984 142.628 177.105 142.437 177.19 142.21L178.161 142.483C178.059 142.812 177.887 143.102 177.646 143.352C177.404 143.599 177.106 143.793 176.751 143.932C176.396 144.068 175.997 144.136 175.553 144.136ZM37.0506 161.455C36.8801 161.455 36.7282 161.44 36.5946 161.412C36.4611 161.386 36.3688 161.361 36.3176 161.335L36.5733 160.449C36.8176 160.511 37.0336 160.534 37.2211 160.517C37.4086 160.5 37.5748 160.416 37.7196 160.266C37.8674 160.118 38.0023 159.878 38.1245 159.545L38.312 159.034L35.8915 152.455H36.9824L38.7892 157.67H38.8574L40.6642 152.455H41.7551L38.9767 159.955C38.8517 160.293 38.6969 160.572 38.5123 160.794C38.3276 161.018 38.1131 161.185 37.8688 161.293C37.6273 161.401 37.3546 161.455 37.0506 161.455ZM45.5073 159.136C44.9164 159.136 44.3979 158.996 43.9519 158.714C43.5087 158.433 43.1621 158.04 42.9121 157.534C42.665 157.028 42.5414 156.437 42.5414 155.761C42.5414 155.08 42.665 154.484 42.9121 153.976C43.1621 153.467 43.5087 153.072 43.9519 152.791C44.3979 152.51 44.9164 152.369 45.5073 152.369C46.0982 152.369 46.6152 152.51 47.0584 152.791C47.5044 153.072 47.851 153.467 48.0982 153.976C48.3482 154.484 48.4732 155.08 48.4732 155.761C48.4732 156.437 48.3482 157.028 48.0982 157.534C47.851 158.04 47.5044 158.433 47.0584 158.714C46.6152 158.996 46.0982 159.136 45.5073 159.136ZM45.5073 158.233C45.9561 158.233 46.3255 158.118 46.6152 157.888C46.905 157.658 47.1195 157.355 47.2587 156.98C47.3979 156.605 47.4675 156.199 47.4675 155.761C47.4675 155.324 47.3979 154.916 47.2587 154.538C47.1195 154.161 46.905 153.855 46.6152 153.622C46.3255 153.389 45.9561 153.273 45.5073 153.273C45.0584 153.273 44.6891 153.389 44.3993 153.622C44.1096 153.855 43.8951 154.161 43.7559 154.538C43.6167 154.916 43.5471 155.324 43.5471 155.761C43.5471 156.199 43.6167 156.605 43.7559 156.98C43.8951 157.355 44.1096 157.658 44.3993 157.888C44.6891 158.118 45.0584 158.233 45.5073 158.233ZM54.1333 156.324V152.455H55.139V159H54.1333V157.892H54.0652C53.9118 158.224 53.6731 158.507 53.3493 158.74C53.0254 158.97 52.6163 159.085 52.122 159.085C51.7129 159.085 51.3493 158.996 51.0311 158.817C50.7129 158.635 50.4629 158.362 50.2811 157.999C50.0993 157.632 50.0083 157.17 50.0083 156.614V152.455H51.014V156.545C51.014 157.023 51.1475 157.403 51.4146 157.688C51.6845 157.972 52.0282 158.114 52.4458 158.114C52.6958 158.114 52.9501 158.05 53.2086 157.922C53.47 157.794 53.6887 157.598 53.8649 157.334C54.0439 157.07 54.1333 156.733 54.1333 156.324ZM56.981 159V152.455H57.9526V153.443H58.0208C58.1401 153.119 58.356 152.857 58.6685 152.655C58.981 152.453 59.3333 152.352 59.7253 152.352C59.7992 152.352 59.8915 152.354 60.0023 152.357C60.1131 152.359 60.1969 152.364 60.2537 152.369V153.392C60.2196 153.384 60.1415 153.371 60.0194 153.354C59.9 153.334 59.7736 153.324 59.6401 153.324C59.3219 153.324 59.0378 153.391 58.7878 153.524C58.5407 153.655 58.3446 153.837 58.1998 154.07C58.0577 154.3 57.9867 154.562 57.9867 154.858V159H56.981ZM67.6674 152.455V153.307H64.2754V152.455H67.6674ZM65.264 150.886H66.2697V157.125C66.2697 157.409 66.3109 157.622 66.3933 157.764C66.4785 157.903 66.5865 157.997 66.7172 158.045C66.8507 158.091 66.9913 158.114 67.139 158.114C67.2498 158.114 67.3407 158.108 67.4118 158.097C67.4828 158.082 67.5396 158.071 67.5822 158.062L67.7868 158.966C67.7186 158.991 67.6234 159.017 67.5012 159.043C67.3791 159.071 67.2243 159.085 67.0368 159.085C66.7527 159.085 66.4743 159.024 66.2015 158.902C65.9316 158.78 65.7072 158.594 65.5282 158.344C65.3521 158.094 65.264 157.778 65.264 157.398V150.886ZM70.3265 155.062V159H69.3208V150.273H70.3265V153.477H70.4118C70.5652 153.139 70.7953 152.871 71.1021 152.672C71.4118 152.47 71.8237 152.369 72.3379 152.369C72.7839 152.369 73.1745 152.459 73.5098 152.638C73.845 152.814 74.1049 153.085 74.2896 153.452C74.4771 153.815 74.5708 154.278 74.5708 154.841V159H73.5652V154.909C73.5652 154.389 73.4302 153.987 73.1603 153.703C72.8933 153.416 72.5225 153.273 72.0481 153.273C71.7186 153.273 71.4231 153.342 71.1618 153.482C70.9032 153.621 70.6987 153.824 70.5481 154.091C70.4004 154.358 70.3265 154.682 70.3265 155.062ZM79.0698 159.136C78.4789 159.136 77.9604 158.996 77.5144 158.714C77.0712 158.433 76.7246 158.04 76.4746 157.534C76.2275 157.028 76.1039 156.437 76.1039 155.761C76.1039 155.08 76.2275 154.484 76.4746 153.976C76.7246 153.467 77.0712 153.072 77.5144 152.791C77.9604 152.51 78.4789 152.369 79.0698 152.369C79.6607 152.369 80.1777 152.51 80.6209 152.791C81.0669 153.072 81.4135 153.467 81.6607 153.976C81.9107 154.484 82.0357 155.08 82.0357 155.761C82.0357 156.437 81.9107 157.028 81.6607 157.534C81.4135 158.04 81.0669 158.433 80.6209 158.714C80.1777 158.996 79.6607 159.136 79.0698 159.136ZM79.0698 158.233C79.5186 158.233 79.888 158.118 80.1777 157.888C80.4675 157.658 80.682 157.355 80.8212 156.98C80.9604 156.605 81.03 156.199 81.03 155.761C81.03 155.324 80.9604 154.916 80.8212 154.538C80.682 154.161 80.4675 153.855 80.1777 153.622C79.888 153.389 79.5186 153.273 79.0698 153.273C78.6209 153.273 78.2516 153.389 77.9618 153.622C77.6721 153.855 77.4576 154.161 77.3184 154.538C77.1792 154.916 77.1096 155.324 77.1096 155.761C77.1096 156.199 77.1792 156.605 77.3184 156.98C77.4576 157.355 77.6721 157.658 77.9618 157.888C78.2516 158.118 78.6209 158.233 79.0698 158.233ZM87.6958 156.324V152.455H88.7015V159H87.6958V157.892H87.6277C87.4743 158.224 87.2356 158.507 86.9118 158.74C86.5879 158.97 86.1788 159.085 85.6845 159.085C85.2754 159.085 84.9118 158.996 84.5936 158.817C84.2754 158.635 84.0254 158.362 83.8436 157.999C83.6618 157.632 83.5708 157.17 83.5708 156.614V152.455H84.5765V156.545C84.5765 157.023 84.71 157.403 84.9771 157.688C85.247 157.972 85.5907 158.114 86.0083 158.114C86.2583 158.114 86.5126 158.05 86.7711 157.922C87.0325 157.794 87.2512 157.598 87.4274 157.334C87.6064 157.07 87.6958 156.733 87.6958 156.324ZM93.1855 161.591C92.6998 161.591 92.2821 161.528 91.9327 161.403C91.5833 161.281 91.2921 161.119 91.0591 160.918C90.829 160.719 90.6458 160.506 90.5094 160.278L91.3105 159.716C91.4015 159.835 91.5165 159.972 91.6557 160.125C91.7949 160.281 91.9853 160.416 92.2267 160.53C92.4711 160.646 92.7907 160.705 93.1855 160.705C93.714 160.705 94.15 160.577 94.4938 160.321C94.8375 160.065 95.0094 159.665 95.0094 159.119V157.79H94.9242C94.8503 157.909 94.7452 158.057 94.6088 158.233C94.4753 158.406 94.2821 158.561 94.0293 158.697C93.7793 158.831 93.4412 158.898 93.0151 158.898C92.4867 158.898 92.0123 158.773 91.5918 158.523C91.1742 158.273 90.8432 157.909 90.5989 157.432C90.3574 156.955 90.2367 156.375 90.2367 155.693C90.2367 155.023 90.3546 154.439 90.5904 153.942C90.8262 153.442 91.1543 153.055 91.5748 152.783C91.9952 152.507 92.481 152.369 93.0321 152.369C93.4583 152.369 93.7963 152.44 94.0463 152.582C94.2992 152.722 94.4924 152.881 94.6259 153.06C94.7623 153.236 94.8674 153.381 94.9412 153.494H95.0435V152.455H96.0151V159.188C96.0151 159.75 95.8873 160.207 95.6316 160.56C95.3787 160.915 95.0378 161.175 94.6088 161.339C94.1827 161.507 93.7083 161.591 93.1855 161.591ZM93.1515 157.994C93.5549 157.994 93.8958 157.902 94.1742 157.717C94.4526 157.533 94.6642 157.267 94.8091 156.92C94.954 156.574 95.0265 156.159 95.0265 155.676C95.0265 155.205 94.9554 154.788 94.8134 154.428C94.6713 154.067 94.4611 153.784 94.1827 153.58C93.9043 153.375 93.5605 153.273 93.1515 153.273C92.7253 153.273 92.3702 153.381 92.0861 153.597C91.8049 153.812 91.5932 154.102 91.4512 154.466C91.312 154.83 91.2424 155.233 91.2424 155.676C91.2424 156.131 91.3134 156.533 91.4554 156.882C91.6003 157.229 91.8134 157.501 92.0946 157.7C92.3787 157.896 92.731 157.994 93.1515 157.994ZM98.8617 155.062V159H97.856V150.273H98.8617V153.477H98.9469C99.1003 153.139 99.3304 152.871 99.6373 152.672C99.9469 152.47 100.359 152.369 100.873 152.369C101.319 152.369 101.71 152.459 102.045 152.638C102.38 152.814 102.64 153.085 102.825 153.452C103.012 153.815 103.106 154.278 103.106 154.841V159H102.1V154.909C102.1 154.389 101.965 153.987 101.695 153.703C101.428 153.416 101.058 153.273 100.583 153.273C100.254 153.273 99.9583 153.342 99.6969 153.482C99.4384 153.621 99.2338 153.824 99.0833 154.091C98.9355 154.358 98.8617 154.682 98.8617 155.062ZM107.792 152.455V153.307H104.4V152.455H107.792ZM105.389 150.886H106.395V157.125C106.395 157.409 106.436 157.622 106.518 157.764C106.604 157.903 106.711 157.997 106.842 158.045C106.976 158.091 107.116 158.114 107.264 158.114C107.375 158.114 107.466 158.108 107.537 158.097C107.608 158.082 107.665 158.071 107.707 158.062L107.912 158.966C107.844 158.991 107.748 159.017 107.626 159.043C107.504 159.071 107.349 159.085 107.162 159.085C106.878 159.085 106.599 159.024 106.327 158.902C106.057 158.78 105.832 158.594 105.653 158.344C105.477 158.094 105.389 157.778 105.389 157.398V150.886ZM113.824 153.92L112.921 154.176C112.864 154.026 112.78 153.879 112.67 153.737C112.562 153.592 112.414 153.473 112.226 153.379C112.039 153.286 111.799 153.239 111.506 153.239C111.106 153.239 110.772 153.331 110.505 153.516C110.241 153.697 110.108 153.929 110.108 154.21C110.108 154.46 110.199 154.658 110.381 154.803C110.563 154.947 110.847 155.068 111.233 155.165L112.205 155.403C112.79 155.545 113.226 155.763 113.513 156.055C113.8 156.345 113.944 156.719 113.944 157.176C113.944 157.551 113.836 157.886 113.62 158.182C113.407 158.477 113.108 158.71 112.725 158.881C112.341 159.051 111.895 159.136 111.387 159.136C110.719 159.136 110.167 158.991 109.729 158.702C109.292 158.412 109.015 157.989 108.898 157.432L109.853 157.193C109.944 157.545 110.116 157.81 110.368 157.986C110.624 158.162 110.958 158.25 111.37 158.25C111.839 158.25 112.211 158.151 112.486 157.952C112.765 157.75 112.904 157.509 112.904 157.227C112.904 157 112.824 156.81 112.665 156.656C112.506 156.5 112.262 156.384 111.932 156.307L110.841 156.051C110.242 155.909 109.802 155.689 109.52 155.391C109.242 155.089 109.103 154.713 109.103 154.261C109.103 153.892 109.206 153.565 109.414 153.281C109.624 152.997 109.91 152.774 110.27 152.612C110.634 152.45 111.046 152.369 111.506 152.369C112.154 152.369 112.662 152.511 113.032 152.795C113.404 153.08 113.668 153.455 113.824 153.92ZM120.316 159L118.321 152.455H119.378L120.793 157.466H120.861L122.259 152.455H123.333L124.713 157.449H124.781L126.196 152.455H127.253L125.259 159H124.27L122.838 153.972H122.736L121.304 159H120.316ZM128.583 159V152.455H129.588V159H128.583ZM129.094 151.364C128.898 151.364 128.729 151.297 128.587 151.163C128.448 151.03 128.378 150.869 128.378 150.682C128.378 150.494 128.448 150.334 128.587 150.2C128.729 150.067 128.898 150 129.094 150C129.29 150 129.458 150.067 129.597 150.2C129.739 150.334 129.81 150.494 129.81 150.682C129.81 150.869 129.739 151.03 129.597 151.163C129.458 151.297 129.29 151.364 129.094 151.364ZM134.277 152.455V153.307H130.885V152.455H134.277ZM131.873 150.886H132.879V157.125C132.879 157.409 132.92 157.622 133.003 157.764C133.088 157.903 133.196 157.997 133.327 158.045C133.46 158.091 133.601 158.114 133.748 158.114C133.859 158.114 133.95 158.108 134.021 158.097C134.092 158.082 134.149 158.071 134.192 158.062L134.396 158.966C134.328 158.991 134.233 159.017 134.111 159.043C133.988 159.071 133.834 159.085 133.646 159.085C133.362 159.085 133.084 159.024 132.811 158.902C132.541 158.78 132.317 158.594 132.138 158.344C131.961 158.094 131.873 157.778 131.873 157.398V150.886ZM136.936 155.062V159H135.93V150.273H136.936V153.477H137.021C137.175 153.139 137.405 152.871 137.711 152.672C138.021 152.47 138.433 152.369 138.947 152.369C139.393 152.369 139.784 152.459 140.119 152.638C140.454 152.814 140.714 153.085 140.899 153.452C141.086 153.815 141.18 154.278 141.18 154.841V159H140.175V154.909C140.175 154.389 140.04 153.987 139.77 153.703C139.503 153.416 139.132 153.273 138.657 153.273C138.328 153.273 138.032 153.342 137.771 153.482C137.513 153.621 137.308 153.824 137.157 154.091C137.01 154.358 136.936 154.682 136.936 155.062ZM147.043 161.455C146.872 161.455 146.72 161.44 146.587 161.412C146.453 161.386 146.361 161.361 146.31 161.335L146.566 160.449C146.81 160.511 147.026 160.534 147.213 160.517C147.401 160.5 147.567 160.416 147.712 160.266C147.86 160.118 147.994 159.878 148.117 159.545L148.304 159.034L145.884 152.455H146.975L148.781 157.67H148.85L150.656 152.455H151.747L148.969 159.955C148.844 160.293 148.689 160.572 148.504 160.794C148.32 161.018 148.105 161.185 147.861 161.293C147.619 161.401 147.347 161.455 147.043 161.455ZM155.499 159.136C154.909 159.136 154.39 158.996 153.944 158.714C153.501 158.433 153.154 158.04 152.904 157.534C152.657 157.028 152.534 156.437 152.534 155.761C152.534 155.08 152.657 154.484 152.904 153.976C153.154 153.467 153.501 153.072 153.944 152.791C154.39 152.51 154.909 152.369 155.499 152.369C156.09 152.369 156.607 152.51 157.051 152.791C157.497 153.072 157.843 153.467 158.09 153.976C158.34 154.484 158.465 155.08 158.465 155.761C158.465 156.437 158.34 157.028 158.09 157.534C157.843 158.04 157.497 158.433 157.051 158.714C156.607 158.996 156.09 159.136 155.499 159.136ZM155.499 158.233C155.948 158.233 156.318 158.118 156.607 157.888C156.897 157.658 157.112 157.355 157.251 156.98C157.39 156.605 157.46 156.199 157.46 155.761C157.46 155.324 157.39 154.916 157.251 154.538C157.112 154.161 156.897 153.855 156.607 153.622C156.318 153.389 155.948 153.273 155.499 153.273C155.051 153.273 154.681 153.389 154.392 153.622C154.102 153.855 153.887 154.161 153.748 154.538C153.609 154.916 153.539 155.324 153.539 155.761C153.539 156.199 153.609 156.605 153.748 156.98C153.887 157.355 154.102 157.658 154.392 157.888C154.681 158.118 155.051 158.233 155.499 158.233ZM164.126 156.324V152.455H165.131V159H164.126V157.892H164.057C163.904 158.224 163.665 158.507 163.341 158.74C163.018 158.97 162.608 159.085 162.114 159.085C161.705 159.085 161.341 158.996 161.023 158.817C160.705 158.635 160.455 158.362 160.273 157.999C160.091 157.632 160.001 157.17 160.001 156.614V152.455H161.006V156.545C161.006 157.023 161.14 157.403 161.407 157.688C161.677 157.972 162.02 158.114 162.438 158.114C162.688 158.114 162.942 158.05 163.201 157.922C163.462 157.794 163.681 157.598 163.857 157.334C164.036 157.07 164.126 156.733 164.126 156.324ZM166.973 159V152.455H167.945V153.443H168.013C168.132 153.119 168.348 152.857 168.661 152.655C168.973 152.453 169.325 152.352 169.718 152.352C169.791 152.352 169.884 152.354 169.994 152.357C170.105 152.359 170.189 152.364 170.246 152.369V153.392C170.212 153.384 170.134 153.371 170.012 153.354C169.892 153.334 169.766 153.324 169.632 153.324C169.314 153.324 169.03 153.391 168.78 153.524C168.533 153.655 168.337 153.837 168.192 154.07C168.05 154.3 167.979 154.562 167.979 154.858V159H166.973ZM86.2603 176.455V167.455H87.2319V168.494H87.3512C87.4251 168.381 87.5273 168.236 87.658 168.06C87.7915 167.881 87.9819 167.722 88.229 167.582C88.479 167.44 88.8171 167.369 89.2433 167.369C89.7944 167.369 90.2802 167.507 90.7006 167.783C91.1211 168.058 91.4492 168.449 91.685 168.955C91.9208 169.46 92.0387 170.057 92.0387 170.744C92.0387 171.438 91.9208 172.038 91.685 172.547C91.4492 173.053 91.1225 173.445 90.7049 173.723C90.2873 173.999 89.8058 174.136 89.2603 174.136C88.8398 174.136 88.5032 174.067 88.2504 173.928C87.9975 173.786 87.8029 173.625 87.6665 173.446C87.5302 173.264 87.4251 173.114 87.3512 172.994H87.266V176.455H86.2603ZM87.2489 170.727C87.2489 171.222 87.3214 171.658 87.4663 172.036C87.6112 172.411 87.8228 172.705 88.1012 172.918C88.3796 173.128 88.7205 173.233 89.1239 173.233C89.5444 173.233 89.8952 173.122 90.1765 172.901C90.4606 172.676 90.6737 172.375 90.8157 171.997C90.9606 171.616 91.033 171.193 91.033 170.727C91.033 170.267 90.962 169.852 90.82 169.483C90.6808 169.111 90.4691 168.817 90.185 168.601C89.9038 168.382 89.5501 168.273 89.1239 168.273C88.7148 168.273 88.3711 168.376 88.0927 168.584C87.8143 168.788 87.604 169.075 87.462 169.445C87.32 169.811 87.2489 170.239 87.2489 170.727ZM96.3171 174.136C95.6864 174.136 95.1424 173.997 94.685 173.719C94.2305 173.438 93.8796 173.045 93.6325 172.543C93.3881 172.037 93.266 171.449 93.266 170.778C93.266 170.108 93.3881 169.517 93.6325 169.006C93.8796 168.491 94.2234 168.091 94.6637 167.804C95.1069 167.514 95.6239 167.369 96.2148 167.369C96.5558 167.369 96.8924 167.426 97.2248 167.54C97.5572 167.653 97.8597 167.838 98.1325 168.094C98.4052 168.347 98.6225 168.682 98.7844 169.099C98.9464 169.517 99.0273 170.031 99.0273 170.642V171.068H93.9819V170.199H98.0046C98.0046 169.83 97.9308 169.5 97.783 169.21C97.6381 168.92 97.4308 168.692 97.1609 168.524C96.8938 168.357 96.5785 168.273 96.2148 168.273C95.8143 168.273 95.4677 168.372 95.1751 168.571C94.8853 168.767 94.6623 169.023 94.506 169.338C94.3498 169.653 94.2717 169.991 94.2717 170.352V170.932C94.2717 171.426 94.3569 171.845 94.5273 172.189C94.7006 172.53 94.9407 172.79 95.2475 172.969C95.5543 173.145 95.9109 173.233 96.3171 173.233C96.5813 173.233 96.82 173.196 97.033 173.122C97.2489 173.045 97.435 172.932 97.5913 172.781C97.7475 172.628 97.8683 172.437 97.9535 172.21L98.9251 172.483C98.8228 172.812 98.6509 173.102 98.4094 173.352C98.168 173.599 97.8697 173.793 97.5146 173.932C97.1594 174.068 96.7603 174.136 96.3171 174.136ZM103.301 174.136C102.671 174.136 102.127 173.997 101.669 173.719C101.215 173.438 100.864 173.045 100.617 172.543C100.373 172.037 100.25 171.449 100.25 170.778C100.25 170.108 100.373 169.517 100.617 169.006C100.864 168.491 101.208 168.091 101.648 167.804C102.091 167.514 102.608 167.369 103.199 167.369C103.54 167.369 103.877 167.426 104.209 167.54C104.542 167.653 104.844 167.838 105.117 168.094C105.39 168.347 105.607 168.682 105.769 169.099C105.931 169.517 106.012 170.031 106.012 170.642V171.068H100.966V170.199H104.989C104.989 169.83 104.915 169.5 104.767 169.21C104.623 168.92 104.415 168.692 104.145 168.524C103.878 168.357 103.563 168.273 103.199 168.273C102.799 168.273 102.452 168.372 102.159 168.571C101.87 168.767 101.647 169.023 101.49 169.338C101.334 169.653 101.256 169.991 101.256 170.352V170.932C101.256 171.426 101.341 171.845 101.512 172.189C101.685 172.53 101.925 172.79 102.232 172.969C102.539 173.145 102.895 173.233 103.301 173.233C103.566 173.233 103.804 173.196 104.017 173.122C104.233 173.045 104.419 172.932 104.576 172.781C104.732 172.628 104.853 172.437 104.938 172.21L105.909 172.483C105.807 172.812 105.635 173.102 105.394 173.352C105.152 173.599 104.854 173.793 104.499 173.932C104.144 174.068 103.745 174.136 103.301 174.136ZM107.542 174V167.455H108.513V168.443H108.581C108.701 168.119 108.917 167.857 109.229 167.655C109.542 167.453 109.894 167.352 110.286 167.352C110.36 167.352 110.452 167.354 110.563 167.357C110.674 167.359 110.757 167.364 110.814 167.369V168.392C110.78 168.384 110.702 168.371 110.58 168.354C110.461 168.334 110.334 168.324 110.201 168.324C109.882 168.324 109.598 168.391 109.348 168.524C109.101 168.655 108.905 168.837 108.76 169.07C108.618 169.3 108.547 169.562 108.547 169.858V174H107.542ZM116.643 168.92L115.739 169.176C115.683 169.026 115.599 168.879 115.488 168.737C115.38 168.592 115.232 168.473 115.045 168.379C114.857 168.286 114.617 168.239 114.325 168.239C113.924 168.239 113.59 168.331 113.323 168.516C113.059 168.697 112.927 168.929 112.927 169.21C112.927 169.46 113.018 169.658 113.2 169.803C113.381 169.947 113.665 170.068 114.052 170.165L115.023 170.403C115.609 170.545 116.045 170.763 116.332 171.055C116.619 171.345 116.762 171.719 116.762 172.176C116.762 172.551 116.654 172.886 116.438 173.182C116.225 173.477 115.927 173.71 115.543 173.881C115.16 174.051 114.714 174.136 114.205 174.136C113.538 174.136 112.985 173.991 112.548 173.702C112.11 173.412 111.833 172.989 111.717 172.432L112.671 172.193C112.762 172.545 112.934 172.81 113.187 172.986C113.442 173.162 113.776 173.25 114.188 173.25C114.657 173.25 115.029 173.151 115.305 172.952C115.583 172.75 115.722 172.509 115.722 172.227C115.722 172 115.643 171.81 115.484 171.656C115.325 171.5 115.08 171.384 114.751 171.307L113.66 171.051C113.06 170.909 112.62 170.689 112.339 170.391C112.06 170.089 111.921 169.713 111.921 169.261C111.921 168.892 112.025 168.565 112.232 168.281C112.442 167.997 112.728 167.774 113.089 167.612C113.452 167.45 113.864 167.369 114.325 167.369C114.972 167.369 115.481 167.511 115.85 167.795C116.222 168.08 116.487 168.455 116.643 168.92ZM119.009 174.068C118.799 174.068 118.618 173.993 118.468 173.842C118.317 173.692 118.242 173.511 118.242 173.301C118.242 173.091 118.317 172.911 118.468 172.76C118.618 172.609 118.799 172.534 119.009 172.534C119.219 172.534 119.4 172.609 119.55 172.76C119.701 172.911 119.776 173.091 119.776 173.301C119.776 173.44 119.74 173.568 119.669 173.685C119.601 173.801 119.509 173.895 119.392 173.966C119.279 174.034 119.151 174.068 119.009 174.068Z" fill="#787486"/>
<defs>
<filter id="filter0_f_0_1" x="52" y="0" width="101" height="101" filterUnits="userSpaceOnUse" color-interpolation-filters="sRGB">
<feFlood flood-opacity="0" result="BackgroundImageFix"/>
<feBlend mode="normal" in="SourceGraphic" in2="BackgroundImageFix" result="shape"/>
<feGaussianBlur stdDeviation="17" result="effect1_foregroundBlur_0_1"/>
</filter>
</defs>
</svg>
